<svg width="104" height="108" viewBox="0 0 104 108" fill="none" xmlns="http://www.w3.org/2000/svg">
<path d="M20.9697 16.0527H23.0423V18.1372H20.9697V16.0527Z" fill="#FF0BAB" stroke="#FF0BAB"/>
<path d="M17.2046 16.0527H19.2772V18.1372H17.2046V16.0527Z" fill="#FF0BAB" stroke="#FF0BAB"/>
<path d="M28.543 19.9191H30.6156V22.0036H28.543V19.9191Z" fill="#FF0BAB" stroke="#FF0BAB"/>
<path d="M24.7346 19.9191H26.8072V22.0036H24.7346V19.9191Z" fill="#FF0BAB" stroke="#FF0BAB"/>
<path d="M20.9697 19.9191H23.0423V22.0036H20.9697V19.9191Z" fill="#FF0BAB" stroke="#FF0BAB"/>
<path d="M17.2046 19.9191H19.2772V22.0036H17.2046V19.9191Z" fill="#FF0BAB" stroke="#FF0BAB"/>
<path d="M12.1414 19.9191H14.214V22.0036H12.1414V19.9191Z" fill="#FF0BAB" stroke="#FF0BAB"/>
<path d="M0.5 19.9191H2.57261V22.0036H0.5V19.9191Z" fill="#FF0BAB" stroke="#FF0BAB"/>
<path d="M28.543 27.6955H30.6156V29.78H28.543V27.6955Z" fill="#FF0BAB" stroke="#FF0BAB"/>
<path d="M24.7346 27.6955H26.8072V29.78H24.7346V27.6955Z" fill="#FF0BAB" stroke="#FF0BAB"/>
<path d="M20.9697 27.6955H23.0423V29.78H20.9697V27.6955Z" fill="#FF0BAB" stroke="#FF0BAB"/>
<path d="M17.2046 27.6955H19.2772V29.78H17.2046V27.6955Z" fill="#FF0BAB" stroke="#FF0BAB"/>
<path d="M28.543 39.3817H30.6156V41.4662H28.543V39.3817Z" fill="#FF0BAB" stroke="#FF0BAB"/>
<path d="M24.7346 39.3817H26.8072V41.4662H24.7346V39.3817Z" fill="#FF0BAB" stroke="#FF0BAB"/>
<path d="M28.543 43.2482H30.6156V45.3327H28.543V43.2482Z" fill="#FF0BAB" stroke="#FF0BAB"/>
<path d="M20.9697 43.2482H23.0423V45.3327H20.9697V43.2482Z" fill="#FF0BAB" stroke="#FF0BAB"/>
<path d="M17.2046 43.2482H19.2772V45.3327H17.2046V43.2482Z" fill="#FF0BAB" stroke="#FF0BAB"/>
<path d="M28.543 47.1581H30.6156V49.2426H28.543V47.1581Z" fill="#FF0BAB" stroke="#FF0BAB"/>
<path d="M24.7346 47.1581H26.8072V49.2426H24.7346V47.1581Z" fill="#FF0BAB" stroke="#FF0BAB"/>
<path d="M20.9697 47.1581H23.0423V49.2426H20.9697V47.1581Z" fill="#FF0BAB" stroke="#FF0BAB"/>
<path d="M24.7346 54.891H26.8072V56.9755H24.7346V54.891Z" fill="#FF0BAB" stroke="#FF0BAB"/>
<path d="M20.9697 54.891H23.0423V56.9755H20.9697V54.891Z" fill="#FF0BAB" stroke="#FF0BAB"/>
<path d="M28.543 58.8009H30.6156V60.8853H28.543V58.8009Z" fill="#FF0BAB" stroke="#FF0BAB"/>
<path d="M24.7346 58.8009H26.8072V60.8853H24.7346V58.8009Z" fill="#FF0BAB" stroke="#FF0BAB"/>
<path d="M17.2046 58.8009H19.2772V60.8853H17.2046V58.8009Z" fill="#FF0BAB" stroke="#FF0BAB"/>
<path d="M20.9697 62.6673H23.0423V64.7518H20.9697V62.6673Z" fill="#FF0BAB" stroke="#FF0BAB"/>
<path d="M8.28979 62.6673H10.3624V64.7518H8.28979V62.6673Z" fill="#FF0BAB" stroke="#FF0BAB"/>
<path d="M28.543 70.4437H30.6156V72.5282H28.543V70.4437Z" fill="#FF0BAB" stroke="#FF0BAB"/>
<path d="M24.7346 70.4437H26.8072V72.5282H24.7346V70.4437Z" fill="#FF0BAB" stroke="#FF0BAB"/>
<path d="M20.9697 70.4437H23.0423V72.5282H20.9697V70.4437Z" fill="#FF0BAB" stroke="#FF0BAB"/>
<path d="M17.2046 70.4437H19.2772V72.5282H17.2046V70.4437Z" fill="#FF0BAB" stroke="#FF0BAB"/>
<path d="M28.543 74.3536H30.6156V76.4381H28.543V74.3536Z" fill="#FF0BAB" stroke="#FF0BAB"/>
<path d="M28.543 82.0865H30.6156V84.171H28.543V82.0865Z" fill="#FF0BAB" stroke="#FF0BAB"/>
<path d="M24.7346 82.0865H26.8072V84.171H24.7346V82.0865Z" fill="#FF0BAB" stroke="#FF0BAB"/>
<path d="M20.9697 82.0865H23.0423V84.171H20.9697V82.0865Z" fill="#FF0BAB" stroke="#FF0BAB"/>
<path d="M17.2046 82.0865H19.2772V84.171H17.2046V82.0865Z" fill="#FF0BAB" stroke="#FF0BAB"/>
<path d="M24.7346 85.9964H26.8072V88.0808H24.7346V85.9964Z" fill="#FF0BAB" stroke="#FF0BAB"/>
<path d="M21.9651 93.7727H24.0377V95.8572H21.9651V93.7727Z" fill="#FF0BAB" stroke="#FF0BAB"/>
<path d="M25.73 97.6392H27.8026V99.7236H25.73V97.6392Z" fill="#FF0BAB" stroke="#FF0BAB"/>
<path d="M17.594 97.6392H19.6666V99.7236H17.594V97.6392Z" fill="#FF0BAB" stroke="#FF0BAB"/>
<path d="M32.3081 43.2482H34.3807V45.3327H32.3081V43.2482Z" fill="#FF0BAB" stroke="#FF0BAB"/>
<path d="M32.3081 39.3817H34.3807V41.4662H32.3081V39.3817Z" fill="#FF0BAB" stroke="#FF0BAB"/>
<path d="M32.3081 66.5772H34.3807V68.6617H32.3081V66.5772Z" fill="#FF0BAB" stroke="#FF0BAB"/>
<path d="M32.3081 47.1581H34.3807V49.2426H32.3081V47.1581Z" fill="#FF0BAB" stroke="#FF0BAB"/>
<path d="M32.3081 62.6673H34.3807V64.7518H32.3081V62.6673Z" fill="#FF0BAB" stroke="#FF0BAB"/>
<path d="M32.3081 58.8009H34.3807V60.8853H32.3081V58.8009Z" fill="#FF0BAB" stroke="#FF0BAB"/>
<path d="M32.3081 54.891H34.3807V56.9755H32.3081V54.891Z" fill="#FF0BAB" stroke="#FF0BAB"/>
<path d="M32.3081 51.0245H34.3807V53.109H32.3081V51.0245Z" fill="#FF0BAB" stroke="#FF0BAB"/>
<path d="M36.1162 74.3536H38.1888V76.4381H36.1162V74.3536Z" fill="#FF0BAB" stroke="#FF0BAB"/>
<path d="M36.1162 70.4437H38.1888V72.5282H36.1162V70.4437Z" fill="#FF0BAB" stroke="#FF0BAB"/>
<path d="M32.3081 31.6054H34.3807V33.6899H32.3081V31.6054Z" fill="#FF0BAB" stroke="#FF0BAB"/>
<path d="M36.1162 66.5772H38.1888V68.6617H36.1162V66.5772Z" fill="#FF0BAB" stroke="#FF0BAB"/>
<path d="M32.3081 27.6955H34.3807V29.78H32.3081V27.6955Z" fill="#FF0BAB" stroke="#FF0BAB"/>
<path d="M36.1162 62.6673H38.1888V64.7518H36.1162V62.6673Z" fill="#FF0BAB" stroke="#FF0BAB"/>
<path d="M32.3081 16.0527H34.3807V18.1372H32.3081V16.0527Z" fill="#FF0BAB" stroke="#FF0BAB"/>
<path d="M32.3081 19.9191H34.3807V22.0036H32.3081V19.9191Z" fill="#FF0BAB" stroke="#FF0BAB"/>
<path d="M34.3807 14.2273H33.1878L34.3807 13.7637V14.2273Z" fill="#FF0BAB" stroke="#FF0BAB"/>
<mask id="path-58-inside-1_1401_283" fill="white">
<path d="M42.454 10.1223L40.5066 10.8608H42.454V10.1223Z"/>
</mask>
<path d="M42.454 10.1223L40.5066 10.8608H42.454V10.1223Z" fill="#FF0BAB"/>
<path d="M42.454 10.1223H43.454V8.67355L42.0994 9.18726L42.454 10.1223ZM40.5066 10.8608L40.152 9.9258L40.5066 11.8608V10.8608ZM42.454 10.8608V11.8608H43.454V10.8608H42.454ZM42.0994 9.18726L40.152 9.9258L40.8612 11.7958L42.8086 11.0573L42.0994 9.18726ZM40.5066 11.8608H42.454V9.86082H40.5066V11.8608ZM43.454 10.8608V10.1223H41.454V10.8608H43.454Z" fill="#FF0BAB" mask="url(#path-58-inside-1_1401_283)"/>
<path d="M36.1162 13.1153L38.1455 12.3317V14.2273H36.1162V13.1153Z" fill="#FF0BAB" stroke="#FF0BAB"/>
<path d="M49.484 95.2833C48.884 94.7958 48.3042 94.2926 47.7269 93.7727H49.484V95.2833Z" fill="#FF0BAB" stroke="#FF0BAB"/>
<path d="M43.6465 78.22H45.7191V80.3045H43.6465V78.22Z" fill="#FF0BAB" stroke="#FF0BAB"/>
<path d="M54.9849 99.4964V97.6392H57.0575V99.7236H55.3038C55.2333 99.6714 55.165 99.6235 55.1018 99.579L55.0969 99.5756C55.0579 99.5482 55.0208 99.5221 54.9849 99.4964Z" fill="#FF0BAB" stroke="#FF0BAB"/>
<path d="M64.6306 105.416V105.595C64.5244 105.536 64.4184 105.476 64.3123 105.416H64.6306Z" fill="#FF0BAB" stroke="#FF0BAB"/>
<path d="M53.2924 97.6392V98.2525C53.0218 98.0519 52.7535 97.8467 52.4852 97.6392H53.2924Z" fill="#FF0BAB" stroke="#FF0BAB"/>
<path d="M36.1162 43.2482H38.1888V45.3327H36.1162V43.2482Z" fill="#FF0BAB" stroke="#FF0BAB"/>
<path d="M39.8813 43.2482H41.954V45.3327H39.8813V43.2482Z" fill="#FF0BAB" stroke="#FF0BAB"/>
<path d="M39.8813 47.1581H41.954V49.2426H39.8813V47.1581Z" fill="#FF0BAB" stroke="#FF0BAB"/>
<path d="M39.8813 39.3817H41.954V41.4662H39.8813V39.3817Z" fill="#FF0BAB" stroke="#FF0BAB"/>
<path d="M39.8813 58.8009H41.954V60.8853H39.8813V58.8009Z" fill="#FF0BAB" stroke="#FF0BAB"/>
<path d="M39.8813 62.6673H41.954V64.7518H39.8813V62.6673Z" fill="#FF0BAB" stroke="#FF0BAB"/>
<path d="M39.8813 54.891H41.954V56.9755H39.8813V54.891Z" fill="#FF0BAB" stroke="#FF0BAB"/>
<path d="M39.8813 51.0245H41.954V53.109H39.8813V51.0245Z" fill="#FF0BAB" stroke="#FF0BAB"/>
<path d="M39.8813 35.4718H41.954V37.5563H39.8813V35.4718Z" fill="#FF0BAB" stroke="#FF0BAB"/>
<path d="M39.8813 12.1862H41.954V14.2707H39.8813V12.1862Z" fill="#FF0BAB" stroke="#FF0BAB"/>
<path d="M43.6465 85.9964H45.7191V88.0808H43.6465V85.9964Z" fill="#FF0BAB" stroke="#FF0BAB"/>
<path d="M43.6465 82.0865H45.7191V84.171H43.6465V82.0865Z" fill="#FF0BAB" stroke="#FF0BAB"/>
<path d="M39.8813 27.6955H41.954V29.78H39.8813V27.6955Z" fill="#FF0BAB" stroke="#FF0BAB"/>
<path d="M39.8813 31.6054H41.954V33.6899H39.8813V31.6054Z" fill="#FF0BAB" stroke="#FF0BAB"/>
<path d="M39.8813 16.0527H41.954V18.1372H39.8813V16.0527Z" fill="#FF0BAB" stroke="#FF0BAB"/>
<path d="M39.8813 19.9191H41.954V22.0036H39.8813V19.9191Z" fill="#FF0BAB" stroke="#FF0BAB"/>
<path d="M36.1162 35.4718H38.1888V37.5563H36.1162V35.4718Z" fill="#FF0BAB" stroke="#FF0BAB"/>
<path d="M36.1162 39.3817H38.1888V41.4662H36.1162V39.3817Z" fill="#FF0BAB" stroke="#FF0BAB"/>
<path d="M36.1162 31.6054H38.1888V33.6899H36.1162V31.6054Z" fill="#FF0BAB" stroke="#FF0BAB"/>
<path d="M43.6465 10.1625L45.7191 9.37129V10.3608H43.6465V10.1625Z" fill="#FF0BAB" stroke="#FF0BAB"/>
<path d="M36.1162 58.8009H38.1888V60.8853H36.1162V58.8009Z" fill="#FF0BAB" stroke="#FF0BAB"/>
<path d="M36.1162 54.891H38.1888V56.9755H36.1162V54.891Z" fill="#FF0BAB" stroke="#FF0BAB"/>
<path d="M36.1162 51.0245H38.1888V53.109H36.1162V51.0245Z" fill="#FF0BAB" stroke="#FF0BAB"/>
<path d="M36.1162 47.1581H38.1888V49.2426H36.1162V47.1581Z" fill="#FF0BAB" stroke="#FF0BAB"/>
<path d="M39.8813 74.3536H41.954V76.4381H39.8813V74.3536Z" fill="#FF0BAB" stroke="#FF0BAB"/>
<path d="M39.8813 78.22H41.954V80.3045H39.8813V78.22Z" fill="#FF0BAB" stroke="#FF0BAB"/>
<path d="M39.8813 66.5772H41.954V68.6617H39.8813V66.5772Z" fill="#FF0BAB" stroke="#FF0BAB"/>
<path d="M39.8813 70.4437H41.954V72.5282H39.8813V70.4437Z" fill="#FF0BAB" stroke="#FF0BAB"/>
<path d="M36.1162 27.6955H38.1888V29.78H36.1162V27.6955Z" fill="#FF0BAB" stroke="#FF0BAB"/>
<path d="M36.1162 19.9191H38.1888V22.0036H36.1162V19.9191Z" fill="#FF0BAB" stroke="#FF0BAB"/>
<path d="M36.1162 16.0527H38.1888V18.1372H36.1162V16.0527Z" fill="#FF0BAB" stroke="#FF0BAB"/>
<path d="M39.8813 82.0865H41.954V84.171H39.8813V82.0865Z" fill="#FF0BAB" stroke="#FF0BAB"/>
<path d="M58.7498 102.079V101.549H60.7791V103.377C60.293 103.077 59.8142 102.767 59.3253 102.451C59.1353 102.328 58.9438 102.204 58.7498 102.079Z" fill="#FF0BAB" stroke="#FF0BAB"/>
<path d="M36.1162 93.7727H38.1888V95.8572H36.1162V93.7727Z" fill="#FF0BAB" stroke="#FF0BAB"/>
<path d="M36.1162 89.8628H38.1888V91.9473H36.1162V89.8628Z" fill="#FF0BAB" stroke="#FF0BAB"/>
<path d="M56.3024 101.549H57.0574V103.59H55.0281V101.549H56.3024Z" fill="#FF0BAB" stroke="#FF0BAB"/>
<path d="M43.6465 93.7727H45.7191V95.8572H43.6465V93.7727Z" fill="#FF0BAB" stroke="#FF0BAB"/>
<path d="M39.8813 89.8628H41.954V91.9473H39.8813V89.8628Z" fill="#FF0BAB" stroke="#FF0BAB"/>
<path d="M48.478 8.27635H49.4839V10.3608H47.4546V8.68106L48.478 8.27635Z" fill="#FF0BAB" stroke="#FF0BAB"/>
<mask id="path-105-inside-2_1401_283" fill="white">
<path d="M58.293 3.9099H58.3795H58.293Z"/>
</mask>
<path d="M58.293 3.9099H58.3795H58.293Z" fill="#FF0BAB"/>
<path d="M58.293 4.9099H58.3795V2.9099H58.293V4.9099ZM58.3795 2.9099H58.293V4.9099H58.3795V2.9099Z" fill="#FF0BAB" mask="url(#path-105-inside-2_1401_283)"/>
<path d="M32.6736 72.5282H32.3081V70.4437H34.3807V72.5282H32.6736Z" fill="#FF0BAB" stroke="#FF0BAB"/>
<path d="M54.9849 5.73129L57.0575 4.94007V6.45093H54.9849V5.73129Z" fill="#FF0BAB" stroke="#FF0BAB"/>
<path d="M53.2038 6.45093L53.2923 6.41714V6.45093H53.2038Z" fill="#FF0BAB" stroke="#FF0BAB"/>
<path d="M58.793 4.4099H60.8223V6.45093H58.793V4.4099Z" fill="#FF0BAB" stroke="#FF0BAB"/>
<mask id="path-111-inside-3_1401_283" fill="white">
<path d="M61.3223 2.73692L60.4568 3.08447H61.3223V2.73692Z"/>
</mask>
<path d="M61.3223 2.73692L60.4568 3.08447H61.3223V2.73692Z" fill="#FF0BAB"/>
<path d="M61.3223 2.73692H62.3223V1.25777L60.9497 1.80894L61.3223 2.73692ZM60.4568 3.08447L60.0842 2.15649L60.4568 4.08447V3.08447ZM61.3223 3.08447V4.08447H62.3223V3.08447H61.3223ZM60.9497 1.80894L60.0842 2.15649L60.8294 4.01245L61.6949 3.66491L60.9497 1.80894ZM60.4568 4.08447H61.3223V2.08447H60.4568V4.08447ZM62.3223 3.08447V2.73692H60.3223V3.08447H62.3223Z" fill="#FF0BAB" mask="url(#path-111-inside-3_1401_283)"/>
<path d="M63.1431 2.58447L64.6307 1.99556V2.58447H63.1431Z" fill="#FF0BAB" stroke="#FF0BAB"/>
<path d="M32.3081 76.3946V74.3536H32.9766H34.3807V76.3946H34.1883H32.3081Z" fill="#FF0BAB" stroke="#FF0BAB"/>
<path d="M32.3081 80.3045V78.22H34.3807V78.3717V80.3045H32.3081Z" fill="#FF0BAB" stroke="#FF0BAB"/>
<path d="M54.9849 35.4718H57.0575V37.5563H54.9849V35.4718Z" fill="#FF0BAB" stroke="#FF0BAB"/>
<path d="M58.793 93.7727H60.8656V95.8572H58.793V93.7727Z" fill="#FF0BAB" stroke="#FF0BAB"/>
<path d="M58.793 74.3536H60.8656V76.4381H58.793V74.3536Z" fill="#FF0BAB" stroke="#FF0BAB"/>
<path d="M58.793 70.4437H60.8656V72.5282H58.793V70.4437Z" fill="#FF0BAB" stroke="#FF0BAB"/>
<path d="M58.793 89.8628H60.8656V91.9473H58.793V89.8628Z" fill="#FF0BAB" stroke="#FF0BAB"/>
<path d="M58.793 35.4718H60.8656V37.5563H58.793V35.4718Z" fill="#FF0BAB" stroke="#FF0BAB"/>
<path d="M58.793 82.0865H60.8656V84.171H58.793V82.0865Z" fill="#FF0BAB" stroke="#FF0BAB"/>
<path d="M58.793 85.9964H60.8656V88.0808H58.793V85.9964Z" fill="#FF0BAB" stroke="#FF0BAB"/>
<path d="M58.793 78.22H60.8656V80.3045H58.793V78.22Z" fill="#FF0BAB" stroke="#FF0BAB"/>
<path d="M58.793 43.2482H60.8656V45.3327H58.793V43.2482Z" fill="#FF0BAB" stroke="#FF0BAB"/>
<path d="M58.793 62.6673H60.8656V64.7518H58.793V62.6673Z" fill="#FF0BAB" stroke="#FF0BAB"/>
<path d="M58.793 39.3817H60.8656V41.4662H58.793V39.3817Z" fill="#FF0BAB" stroke="#FF0BAB"/>
<path d="M58.793 47.1581H60.8656V49.2426H58.793V47.1581Z" fill="#FF0BAB" stroke="#FF0BAB"/>
<path d="M58.793 58.8009H60.8656V60.8853H58.793V58.8009Z" fill="#FF0BAB" stroke="#FF0BAB"/>
<path d="M58.793 54.891H60.8656V56.9755H58.793V54.891Z" fill="#FF0BAB" stroke="#FF0BAB"/>
<path d="M58.793 51.0245H60.8656V53.109H58.793V51.0245Z" fill="#FF0BAB" stroke="#FF0BAB"/>
<path d="M58.793 66.5772H60.8656V68.6617H58.793V66.5772Z" fill="#FF0BAB" stroke="#FF0BAB"/>
<path d="M54.9849 51.0245H57.0575V53.109H54.9849V51.0245Z" fill="#FF0BAB" stroke="#FF0BAB"/>
<path d="M54.9849 47.1581H57.0575V49.2426H54.9849V47.1581Z" fill="#FF0BAB" stroke="#FF0BAB"/>
<path d="M54.9849 54.891H57.0575V56.9755H54.9849V54.891Z" fill="#FF0BAB" stroke="#FF0BAB"/>
<path d="M54.9849 58.8009H57.0575V60.8853H54.9849V58.8009Z" fill="#FF0BAB" stroke="#FF0BAB"/>
<path d="M54.9849 39.3817H57.0575V41.4662H54.9849V39.3817Z" fill="#FF0BAB" stroke="#FF0BAB"/>
<path d="M54.9849 66.5772H57.0575V68.6617H54.9849V66.5772Z" fill="#FF0BAB" stroke="#FF0BAB"/>
<path d="M54.9849 62.6673H57.0575V64.7518H54.9849V62.6673Z" fill="#FF0BAB" stroke="#FF0BAB"/>
<path d="M54.9849 12.1862H57.0575V14.2707H54.9849V12.1862Z" fill="#FF0BAB" stroke="#FF0BAB"/>
<path d="M58.793 97.6392H60.8656V99.7236H58.793V97.6392Z" fill="#FF0BAB" stroke="#FF0BAB"/>
<path d="M54.9849 8.27635H57.0575V10.3608H54.9849V8.27635Z" fill="#FF0BAB" stroke="#FF0BAB"/>
<path d="M54.9849 16.0527H57.0575V18.1372H54.9849V16.0527Z" fill="#FF0BAB" stroke="#FF0BAB"/>
<path d="M54.9849 19.9191H57.0575V22.0036H54.9849V19.9191Z" fill="#FF0BAB" stroke="#FF0BAB"/>
<path d="M54.9849 27.6955H57.0575V29.78H54.9849V27.6955Z" fill="#FF0BAB" stroke="#FF0BAB"/>
<path d="M54.9849 23.829H57.0575V25.9135H54.9849V23.829Z" fill="#FF0BAB" stroke="#FF0BAB"/>
<path d="M54.9849 31.6054H57.0575V33.6899H54.9849V31.6054Z" fill="#FF0BAB" stroke="#FF0BAB"/>
<path d="M62.5581 82.0865H64.6307V84.171H62.5581V82.0865Z" fill="#FF0BAB" stroke="#FF0BAB"/>
<path d="M62.5581 51.0245H64.6307V53.109H62.5581V51.0245Z" fill="#FF0BAB" stroke="#FF0BAB"/>
<path d="M62.5581 43.2482H64.6307V45.3327H62.5581V43.2482Z" fill="#FF0BAB" stroke="#FF0BAB"/>
<path d="M62.5581 39.3817H64.6307V41.4662H62.5581V39.3817Z" fill="#FF0BAB" stroke="#FF0BAB"/>
<path d="M62.5581 62.6673H64.6307V64.7518H62.5581V62.6673Z" fill="#FF0BAB" stroke="#FF0BAB"/>
<path d="M62.5581 54.891H64.6307V56.9755H62.5581V54.891Z" fill="#FF0BAB" stroke="#FF0BAB"/>
<path d="M62.5581 35.4718H64.6307V37.5563H62.5581V35.4718Z" fill="#FF0BAB" stroke="#FF0BAB"/>
<path d="M62.5581 58.8009H64.6307V60.8853H62.5581V58.8009Z" fill="#FF0BAB" stroke="#FF0BAB"/>
<path d="M62.5581 4.4099H64.6307V6.49437H62.5581V4.4099Z" fill="#FF0BAB" stroke="#FF0BAB"/>
<path d="M62.5581 12.1862H64.6307V14.2707H62.5581V12.1862Z" fill="#FF0BAB" stroke="#FF0BAB"/>
<path d="M62.5581 8.27635H64.6307V10.3608H62.5581V8.27635Z" fill="#FF0BAB" stroke="#FF0BAB"/>
<path d="M62.5581 66.5772H64.6307V68.6617H62.5581V66.5772Z" fill="#FF0BAB" stroke="#FF0BAB"/>
<path d="M62.5581 31.6054H64.6307V33.6899H62.5581V31.6054Z" fill="#FF0BAB" stroke="#FF0BAB"/>
<path d="M62.5581 23.829H64.6307V25.9135H62.5581V23.829Z" fill="#FF0BAB" stroke="#FF0BAB"/>
<path d="M62.5581 19.9191H64.6307V22.0036H62.5581V19.9191Z" fill="#FF0BAB" stroke="#FF0BAB"/>
<path d="M58.793 31.6054H60.8656V33.6899H58.793V31.6054Z" fill="#FF0BAB" stroke="#FF0BAB"/>
<path d="M62.5581 16.0527H64.6307V18.1372H62.5581V16.0527Z" fill="#FF0BAB" stroke="#FF0BAB"/>
<path d="M58.793 12.1862H60.8656V14.2707H58.793V12.1862Z" fill="#FF0BAB" stroke="#FF0BAB"/>
<path d="M58.793 8.27635H60.8656V10.3608H58.793V8.27635Z" fill="#FF0BAB" stroke="#FF0BAB"/>
<path d="M58.793 16.0527H60.8656V18.1372H58.793V16.0527Z" fill="#FF0BAB" stroke="#FF0BAB"/>
<path d="M62.5581 101.549H64.6307V103.634H62.5581V101.549Z" fill="#FF0BAB" stroke="#FF0BAB"/>
<path d="M58.793 27.6955H60.8656V29.78H58.793V27.6955Z" fill="#FF0BAB" stroke="#FF0BAB"/>
<path d="M58.793 23.829H60.8656V25.9135H58.793V23.829Z" fill="#FF0BAB" stroke="#FF0BAB"/>
<path d="M62.5581 70.4437H64.6307V72.5282H62.5581V70.4437Z" fill="#FF0BAB" stroke="#FF0BAB"/>
<path d="M58.793 19.9191H60.8656V22.0036H58.793V19.9191Z" fill="#FF0BAB" stroke="#FF0BAB"/>
<path d="M54.9849 70.4437H57.0575V72.5282H54.9849V70.4437Z" fill="#FF0BAB" stroke="#FF0BAB"/>
<path d="M62.5581 78.22H64.6307V80.3045H62.5581V78.22Z" fill="#FF0BAB" stroke="#FF0BAB"/>
<path d="M62.5581 74.3536H64.6307V76.4381H62.5581V74.3536Z" fill="#FF0BAB" stroke="#FF0BAB"/>
<path d="M62.5581 89.8628H64.6307V91.9473H62.5581V89.8628Z" fill="#FF0BAB" stroke="#FF0BAB"/>
<path d="M62.5581 85.9964H64.6307V88.0808H62.5581V85.9964Z" fill="#FF0BAB" stroke="#FF0BAB"/>
<path d="M62.5581 93.7727H64.6307V95.8572H62.5581V93.7727Z" fill="#FF0BAB" stroke="#FF0BAB"/>
<path d="M62.5581 97.6392H64.6307V99.7236H62.5581V97.6392Z" fill="#FF0BAB" stroke="#FF0BAB"/>
<path d="M51.2197 31.6054H53.2923V33.6899H51.2197V31.6054Z" fill="#FF0BAB" stroke="#FF0BAB"/>
<path d="M47.4546 70.4437H49.5272V72.5282H47.4546V70.4437Z" fill="#FF0BAB" stroke="#FF0BAB"/>
<path d="M47.4546 74.3536H49.5272V76.4381H47.4546V74.3536Z" fill="#FF0BAB" stroke="#FF0BAB"/>
<path d="M47.4546 66.5772H49.5272V68.6617H47.4546V66.5772Z" fill="#FF0BAB" stroke="#FF0BAB"/>
<path d="M47.4546 82.0865H49.5272V84.171H47.4546V82.0865Z" fill="#FF0BAB" stroke="#FF0BAB"/>
<path d="M47.4546 85.9964H49.5272V88.0808H47.4546V85.9964Z" fill="#FF0BAB" stroke="#FF0BAB"/>
<path d="M47.4546 78.22H49.5272V80.3045H47.4546V78.22Z" fill="#FF0BAB" stroke="#FF0BAB"/>
<path d="M47.4546 89.8628H49.5272V91.9473H47.4546V89.8628Z" fill="#FF0BAB" stroke="#FF0BAB"/>
<path d="M47.4546 62.6673H49.5272V64.7518H47.4546V62.6673Z" fill="#FF0BAB" stroke="#FF0BAB"/>
<path d="M47.4546 35.4718H49.5272V37.5563H47.4546V35.4718Z" fill="#FF0BAB" stroke="#FF0BAB"/>
<path d="M54.9849 74.3536H57.0575V76.4381H54.9849V74.3536Z" fill="#FF0BAB" stroke="#FF0BAB"/>
<path d="M47.4546 39.3817H49.5272V41.4662H47.4546V39.3817Z" fill="#FF0BAB" stroke="#FF0BAB"/>
<path d="M47.4546 51.0245H49.5272V53.109H47.4546V51.0245Z" fill="#FF0BAB" stroke="#FF0BAB"/>
<path d="M47.4546 43.2482H49.5272V45.3327H47.4546V43.2482Z" fill="#FF0BAB" stroke="#FF0BAB"/>
<path d="M47.4546 58.8009H49.5272V60.8853H47.4546V58.8009Z" fill="#FF0BAB" stroke="#FF0BAB"/>
<path d="M47.4546 47.1581H49.5272V49.2426H47.4546V47.1581Z" fill="#FF0BAB" stroke="#FF0BAB"/>
<path d="M43.6465 51.0245H45.7191V53.109H43.6465V51.0245Z" fill="#FF0BAB" stroke="#FF0BAB"/>
<path d="M43.6465 54.891H45.7191V56.9755H43.6465V54.891Z" fill="#FF0BAB" stroke="#FF0BAB"/>
<path d="M43.6465 58.8009H45.7191V60.8853H43.6465V58.8009Z" fill="#FF0BAB" stroke="#FF0BAB"/>
<path d="M43.6465 47.1581H45.7191V49.2426H43.6465V47.1581Z" fill="#FF0BAB" stroke="#FF0BAB"/>
<path d="M47.4546 27.6955H49.5272V29.78H47.4546V27.6955Z" fill="#FF0BAB" stroke="#FF0BAB"/>
<path d="M43.6465 12.1862H45.7191V14.2707H43.6465V12.1862Z" fill="#FF0BAB" stroke="#FF0BAB"/>
<path d="M43.6465 70.4437H45.7191V72.5282H43.6465V70.4437Z" fill="#FF0BAB" stroke="#FF0BAB"/>
<path d="M43.6465 66.5772H45.7191V68.6617H43.6465V66.5772Z" fill="#FF0BAB" stroke="#FF0BAB"/>
<path d="M43.6465 62.6673H45.7191V64.7518H43.6465V62.6673Z" fill="#FF0BAB" stroke="#FF0BAB"/>
<path d="M43.6465 23.829H45.7191V25.9135H43.6465V23.829Z" fill="#FF0BAB" stroke="#FF0BAB"/>
<path d="M43.6465 19.9191H45.7191V22.0036H43.6465V19.9191Z" fill="#FF0BAB" stroke="#FF0BAB"/>
<path d="M43.6465 16.0527H45.7191V18.1372H43.6465V16.0527Z" fill="#FF0BAB" stroke="#FF0BAB"/>
<path d="M43.6465 39.3817H45.7191V41.4662H43.6465V39.3817Z" fill="#FF0BAB" stroke="#FF0BAB"/>
<path d="M43.6465 43.2482H45.7191V45.3327H43.6465V43.2482Z" fill="#FF0BAB" stroke="#FF0BAB"/>
<path d="M43.6465 35.4718H45.7191V37.5563H43.6465V35.4718Z" fill="#FF0BAB" stroke="#FF0BAB"/>
<path d="M43.6465 27.6955H45.7191V29.78H43.6465V27.6955Z" fill="#FF0BAB" stroke="#FF0BAB"/>
<path d="M47.4546 31.6054H49.5272V33.6899H47.4546V31.6054Z" fill="#FF0BAB" stroke="#FF0BAB"/>
<path d="M51.2197 23.829H53.2923V25.9135H51.2197V23.829Z" fill="#FF0BAB" stroke="#FF0BAB"/>
<path d="M51.2197 27.6955H53.2923V29.78H51.2197V27.6955Z" fill="#FF0BAB" stroke="#FF0BAB"/>
<path d="M51.2197 19.9191H53.2923V22.0036H51.2197V19.9191Z" fill="#FF0BAB" stroke="#FF0BAB"/>
<path d="M51.2197 39.3817H53.2923V41.4662H51.2197V39.3817Z" fill="#FF0BAB" stroke="#FF0BAB"/>
<path d="M51.2197 43.2482H53.2923V45.3327H51.2197V43.2482Z" fill="#FF0BAB" stroke="#FF0BAB"/>
<path d="M43.6465 74.3536H45.7191V76.4381H43.6465V74.3536Z" fill="#FF0BAB" stroke="#FF0BAB"/>
<path d="M51.2197 35.4718H53.2923V37.5563H51.2197V35.4718Z" fill="#FF0BAB" stroke="#FF0BAB"/>
<path d="M51.2197 16.0527H53.2923V18.1372H51.2197V16.0527Z" fill="#FF0BAB" stroke="#FF0BAB"/>
<path d="M54.9849 82.0865H57.0575V84.171H54.9849V82.0865Z" fill="#FF0BAB" stroke="#FF0BAB"/>
<path d="M54.9849 78.22H57.0575V80.3045H54.9849V78.22Z" fill="#FF0BAB" stroke="#FF0BAB"/>
<path d="M54.9849 85.9964H57.0575V88.0808H54.9849V85.9964Z" fill="#FF0BAB" stroke="#FF0BAB"/>
<path d="M51.2197 8.27635H53.2923V10.3608H51.2197V8.27635Z" fill="#FF0BAB" stroke="#FF0BAB"/>
<path d="M51.2197 12.1862H53.2923V14.2707H51.2197V12.1862Z" fill="#FF0BAB" stroke="#FF0BAB"/>
<path d="M54.9849 93.7727H57.0575V95.8572H54.9849V93.7727Z" fill="#FF0BAB" stroke="#FF0BAB"/>
<path d="M54.9849 89.8628H57.0575V91.9473H54.9849V89.8628Z" fill="#FF0BAB" stroke="#FF0BAB"/>
<path d="M51.2197 58.8009H53.2923V60.8853H51.2197V58.8009Z" fill="#FF0BAB" stroke="#FF0BAB"/>
<path d="M51.2197 82.0865H53.2923V84.171H51.2197V82.0865Z" fill="#FF0BAB" stroke="#FF0BAB"/>
<path d="M51.2197 85.9964H53.2923V88.0808H51.2197V85.9964Z" fill="#FF0BAB" stroke="#FF0BAB"/>
<path d="M51.2197 93.7727H53.2923V95.8572H51.2197V93.7727Z" fill="#FF0BAB" stroke="#FF0BAB"/>
<path d="M51.2197 89.8628H53.2923V91.9473H51.2197V89.8628Z" fill="#FF0BAB" stroke="#FF0BAB"/>
<path d="M47.4546 19.9191H49.5272V22.0036H47.4546V19.9191Z" fill="#FF0BAB" stroke="#FF0BAB"/>
<path d="M47.4546 12.1862H49.5272V14.2707H47.4546V12.1862Z" fill="#FF0BAB" stroke="#FF0BAB"/>
<path d="M47.4546 16.0527H49.5272V18.1372H47.4546V16.0527Z" fill="#FF0BAB" stroke="#FF0BAB"/>
<path d="M51.2197 66.5772H53.2923V68.6617H51.2197V66.5772Z" fill="#FF0BAB" stroke="#FF0BAB"/>
<path d="M51.2197 54.891H53.2923V56.9755H51.2197V54.891Z" fill="#FF0BAB" stroke="#FF0BAB"/>
<path d="M47.4546 23.829H49.5272V25.9135H47.4546V23.829Z" fill="#FF0BAB" stroke="#FF0BAB"/>
<path d="M51.2197 51.0245H53.2923V53.109H51.2197V51.0245Z" fill="#FF0BAB" stroke="#FF0BAB"/>
<path d="M51.2197 47.1581H53.2923V49.2426H51.2197V47.1581Z" fill="#FF0BAB" stroke="#FF0BAB"/>
<path d="M51.2197 70.4437H53.2923V72.5282H51.2197V70.4437Z" fill="#FF0BAB" stroke="#FF0BAB"/>
<path d="M51.2197 78.22H53.2923V80.3045H51.2197V78.22Z" fill="#FF0BAB" stroke="#FF0BAB"/>
<path d="M51.2197 62.6673H53.2923V64.7518H51.2197V62.6673Z" fill="#FF0BAB" stroke="#FF0BAB"/>
<path d="M20.9697 16.0527H23.0423V18.1372H20.9697V16.0527Z" fill="#FF0BAB" stroke="#FF0BAB"/>
<path d="M17.2046 16.0527H19.2772V18.1372H17.2046V16.0527Z" fill="#FF0BAB" stroke="#FF0BAB"/>
<path d="M28.543 19.9191H30.6156V22.0036H28.543V19.9191Z" fill="#FF0BAB" stroke="#FF0BAB"/>
<path d="M24.7346 19.9191H26.8072V22.0036H24.7346V19.9191Z" fill="#FF0BAB" stroke="#FF0BAB"/>
<path d="M20.9697 19.9191H23.0423V22.0036H20.9697V19.9191Z" fill="#FF0BAB" stroke="#FF0BAB"/>
<path d="M17.2046 19.9191H19.2772V22.0036H17.2046V19.9191Z" fill="#FF0BAB" stroke="#FF0BAB"/>
<path d="M12.1414 19.9191H14.214V22.0036H12.1414V19.9191Z" fill="#FF0BAB" stroke="#FF0BAB"/>
<path d="M0.5 19.9191H2.57261V22.0036H0.5V19.9191Z" fill="#FF0BAB" stroke="#FF0BAB"/>
<path d="M28.543 27.6955H30.6156V29.78H28.543V27.6955Z" fill="#FF0BAB" stroke="#FF0BAB"/>
<path d="M24.7346 27.6955H26.8072V29.78H24.7346V27.6955Z" fill="#FF0BAB" stroke="#FF0BAB"/>
<path d="M20.9697 27.6955H23.0423V29.78H20.9697V27.6955Z" fill="#FF0BAB" stroke="#FF0BAB"/>
<path d="M17.2046 27.6955H19.2772V29.78H17.2046V27.6955Z" fill="#FF0BAB" stroke="#FF0BAB"/>
<path d="M28.543 39.3817H30.6156V41.4662H28.543V39.3817Z" fill="#FF0BAB" stroke="#FF0BAB"/>
<path d="M24.7346 39.3817H26.8072V41.4662H24.7346V39.3817Z" fill="#FF0BAB" stroke="#FF0BAB"/>
<path d="M28.543 43.2482H30.6156V45.3327H28.543V43.2482Z" fill="#FF0BAB" stroke="#FF0BAB"/>
<path d="M20.9697 43.2482H23.0423V45.3327H20.9697V43.2482Z" fill="#FF0BAB" stroke="#FF0BAB"/>
<path d="M17.2046 43.2482H19.2772V45.3327H17.2046V43.2482Z" fill="#FF0BAB" stroke="#FF0BAB"/>
<path d="M28.543 47.1581H30.6156V49.2426H28.543V47.1581Z" fill="#FF0BAB" stroke="#FF0BAB"/>
<path d="M24.7346 47.1581H26.8072V49.2426H24.7346V47.1581Z" fill="#FF0BAB" stroke="#FF0BAB"/>
<path d="M20.9697 47.1581H23.0423V49.2426H20.9697V47.1581Z" fill="#FF0BAB" stroke="#FF0BAB"/>
<path d="M24.7346 54.891H26.8072V56.9755H24.7346V54.891Z" fill="#FF0BAB" stroke="#FF0BAB"/>
<path d="M20.9697 54.891H23.0423V56.9755H20.9697V54.891Z" fill="#FF0BAB" stroke="#FF0BAB"/>
<path d="M28.543 58.8009H30.6156V60.8853H28.543V58.8009Z" fill="#FF0BAB" stroke="#FF0BAB"/>
<path d="M24.7346 58.8009H26.8072V60.8853H24.7346V58.8009Z" fill="#FF0BAB" stroke="#FF0BAB"/>
<path d="M17.2046 58.8009H19.2772V60.8853H17.2046V58.8009Z" fill="#FF0BAB" stroke="#FF0BAB"/>
<path d="M20.9697 62.6673H23.0423V64.7518H20.9697V62.6673Z" fill="#FF0BAB" stroke="#FF0BAB"/>
<path d="M8.28979 62.6673H10.3624V64.7518H8.28979V62.6673Z" fill="#FF0BAB" stroke="#FF0BAB"/>
<path d="M28.543 70.4437H30.6156V72.5282H28.543V70.4437Z" fill="#FF0BAB" stroke="#FF0BAB"/>
<path d="M24.7346 70.4437H26.8072V72.5282H24.7346V70.4437Z" fill="#FF0BAB" stroke="#FF0BAB"/>
<path d="M20.9697 70.4437H23.0423V72.5282H20.9697V70.4437Z" fill="#FF0BAB" stroke="#FF0BAB"/>
<path d="M17.2046 70.4437H19.2772V72.5282H17.2046V70.4437Z" fill="#FF0BAB" stroke="#FF0BAB"/>
<path d="M28.543 74.3536H30.6156V76.4381H28.543V74.3536Z" fill="#FF0BAB" stroke="#FF0BAB"/>
<path d="M28.543 82.0865H30.6156V84.171H28.543V82.0865Z" fill="#FF0BAB" stroke="#FF0BAB"/>
<path d="M24.7346 82.0865H26.8072V84.171H24.7346V82.0865Z" fill="#FF0BAB" stroke="#FF0BAB"/>
<path d="M20.9697 82.0865H23.0423V84.171H20.9697V82.0865Z" fill="#FF0BAB" stroke="#FF0BAB"/>
<path d="M17.2046 82.0865H19.2772V84.171H17.2046V82.0865Z" fill="#FF0BAB" stroke="#FF0BAB"/>
<path d="M43.4734 89.8628H45.546V91.9473H43.4734V89.8628Z" fill="#FF0BAB" stroke="#FF0BAB"/>
<path d="M35.9866 81.8258H38.2756V84.1275H35.9866V81.8258Z" fill="#FF0BAB" stroke="#FF0BAB"/>
<path d="M36.073 85.8226H38.1456V87.9071H36.073V85.8226Z" fill="#FF0BAB" stroke="#FF0BAB"/>
<path d="M32.3945 85.8226H34.4671V87.9071H32.3945V85.8226Z" fill="#FF0BAB" stroke="#FF0BAB"/>
<path d="M66.6563 107.306C66.5709 107.355 66.4719 107.395 66.3665 107.427V0.708612L101.959 13.8496L101.966 13.8522L101.973 13.8547C102.707 14.1003 103.233 14.7541 103.233 15.5093V61.4288C103.233 72.348 98.5023 81.4427 91.5073 89.068C84.6371 96.5248 75.561 102.489 66.6672 107.3L66.6671 107.299L66.6563 107.306Z" fill="#FF0BAB" stroke="#FF0BAB"/>
</svg>
