<?xml version="1.0" encoding="utf-8"?><svg viewBox="0 0 347 120" xmlns="http://www.w3.org/2000/svg" xmlns:xlink="http://www.w3.org/1999/xlink"><style>:root>svg{display:none}:root>svg:target{display:block}</style><svg viewBox="0 0 216 78" id="logo" xmlns="http://www.w3.org/2000/svg"><path d="M92.117 11.827c2.376 0 4.22.47 5.533 1.38 1.312.91 2 2.291 2 4.142 0 .942-.25 1.757-.75 2.51-.5.722-1.22 1.287-2.157 1.663 1.22.251 2.094.816 2.72 1.663.593.847.906 1.82.906 2.95 0 1.945-.625 3.388-1.907 4.392-1.281 1.004-3.063 1.475-5.407 1.475h-9.878v-2.416l2.126-.408V14.682l-2.126-.408v-2.447h8.94zm-2.75 8.44h2.906c1.063 0 1.907-.22 2.47-.659.562-.439.875-1.098.875-1.945 0-.941-.281-1.631-.875-2.07-.594-.44-1.47-.66-2.626-.66h-2.75v5.334zm0 2.793v5.804h3.719c1.063 0 1.875-.22 2.438-.69.563-.47.844-1.161.844-2.07 0-.974-.25-1.758-.719-2.26-.469-.533-1.219-.784-2.25-.784h-4.033zM109.62 14.274l-1.657.252 3.126 6.62h.094l3.126-6.62-1.626-.252v-2.447h7.596v2.447l-1.719.283-5.47 10.354v4.267l2.156.408v2.416h-8.314v-2.416l2.157-.408V24.69l-5.377-10.134-1.688-.283v-2.447h7.596v2.447zM139.69 11.827v5.365h-3.095l-.156-2.259h-3.688v14.213l2.157.408v2.416h-8.346v-2.416l2.156-.407V14.932h-3.688l-.156 2.26h-3.063v-5.366h17.879zM154.383 23.122h-6.815v5.773h6.471l.187-2.415h3.064v5.522h-15.879v-2.416l2.125-.408V14.682l-2.125-.408v-2.447h15.847v5.522h-3.094l-.188-2.416h-6.439v5.083h6.814l.032 3.106zM175.168 18.26h-3.032l-.531-2.76c-.344-.22-.875-.408-1.532-.597a9.172 9.172 0 00-2.125-.25c-1.094 0-1.97.219-2.564.69-.593.47-.906 1.066-.906 1.82 0 .69.313 1.254.938 1.694.625.439 1.719.91 3.251 1.38 2.219.628 3.907 1.444 5.032 2.448 1.157 1.004 1.719 2.353 1.719 4.016 0 1.725-.687 3.074-2.032 4.078-1.375 1.005-3.157 1.506-5.376 1.506-1.594 0-3.032-.25-4.313-.752a9.26 9.26 0 01-3.22-2.103v-4.235h3.126l.437 2.855c.407.345.969.596 1.657.816.688.22 1.469.313 2.313.313 1.094 0 1.938-.22 2.532-.69.563-.44.875-1.067.875-1.82 0-.784-.281-1.412-.812-1.882-.563-.47-1.501-.91-2.876-1.318-2.376-.69-4.189-1.506-5.408-2.479-1.219-.941-1.844-2.259-1.844-3.89 0-1.632.688-2.981 2.063-4.016 1.375-1.036 3.126-1.57 5.189-1.6 1.531 0 2.938.25 4.22.721 1.281.47 2.344 1.098 3.188 1.883v4.173h.031zM83.02 56.162c0-1.098.312-2.04.906-2.824.594-.784 1.5-1.6 2.72-2.479-.626-.847-1.095-1.631-1.407-2.322a5.157 5.157 0 01-.469-2.133c0-1.6.5-2.887 1.5-3.828 1-.941 2.313-1.443 4.001-1.443 1.47 0 2.657.44 3.564 1.349.906.91 1.375 2.008 1.375 3.294 0 .91-.219 1.726-.688 2.48-.437.752-1.062 1.411-1.844 1.976l-1.281.91 3.813 4.455c.344-.565.594-1.16.782-1.788a7.306 7.306 0 00.28-2.04h3.001c0 1.287-.156 2.448-.468 3.514a8.469 8.469 0 01-1.438 2.855l2.876 3.389-.032.063h-4.47l-1.062-1.224a9.836 9.836 0 01-2.407 1.13 9.066 9.066 0 01-2.657.376c-2 0-3.595-.533-4.782-1.6-1.22-1.004-1.814-2.385-1.814-4.11zm6.782 2.635c.5 0 .97-.062 1.47-.188.5-.125.969-.314 1.406-.565l-4.126-4.831-.25.188c-.469.439-.781.878-.969 1.286a3.59 3.59 0 00-.25 1.255c0 .816.25 1.506.75 2.04.5.533 1.157.815 1.97.815zm-1.406-12.424c0 .407.094.815.281 1.223.188.408.5.879.875 1.38l1.188-.784c.5-.345.875-.659 1.032-1.035.187-.345.281-.722.281-1.161 0-.47-.156-.879-.5-1.224a1.787 1.787 0 00-1.313-.533c-.594 0-1.063.188-1.375.596-.313.44-.47.941-.47 1.538zM117.623 41.448c2.282 0 4.063.534 5.376 1.569 1.282 1.035 1.938 2.51 1.938 4.33 0 1.004-.281 1.882-.813 2.635-.531.753-1.344 1.35-2.375 1.82 1.188.345 2.032.941 2.563 1.757.531.816.781 1.82.781 3.044v1.035c0 .44.094.785.25 1.035.188.252.469.377.876.44l.5.063v2.447h-2.094c-1.313 0-2.251-.345-2.782-1.067-.532-.722-.813-1.631-.813-2.761v-1.16c0-.974-.25-1.758-.782-2.291-.531-.565-1.25-.848-2.188-.879h-3.282v5.303l2.157.407v2.416h-8.314v-2.416l2.125-.407V44.303l-2.125-.407v-2.448H117.623zm-2.876 8.88h2.782c1.125 0 1.969-.251 2.532-.722.563-.47.844-1.161.844-2.07 0-.91-.281-1.632-.844-2.166-.563-.533-1.375-.816-2.469-.816h-2.845v5.774zM128.438 43.895v-2.447h8.315v2.447l-2.157.408v14.465l2.157.407v2.416h-8.315v-2.416l2.157-.407V44.303l-2.157-.407zM155.35 59.363c-.657.659-1.594 1.224-2.845 1.757-1.25.533-2.844.784-4.751.784-2.719 0-4.907-.91-6.626-2.73-1.688-1.82-2.564-4.204-2.564-7.122v-.69c0-3.012.844-5.46 2.532-7.373 1.688-1.883 3.876-2.824 6.564-2.824 1.563 0 3.001.251 4.314.753 1.313.502 2.376 1.192 3.251 2.04v4.047h-2.97l-.562-2.698c-.375-.314-.844-.565-1.469-.753-.594-.189-1.282-.283-2.063-.283-1.751 0-3.126.66-4.095 1.946-.969 1.286-1.469 3.012-1.469 5.114v.721c0 2.04.469 3.671 1.438 4.895.969 1.224 2.344 1.82 4.126 1.82.812 0 1.469-.063 1.969-.22a4.93 4.93 0 001.188-.47v-3.42l-2.876-.22v-2.824h6.908v7.75zM157.79 43.895v-2.447h8.314v2.447l-2.157.408v5.805h8.221v-5.805l-2.157-.407v-2.448H178.326v2.447l-2.157.408v14.465l2.157.407v2.416h-8.315v-2.416l2.157-.407v-5.554h-8.189v5.554l2.156.407v2.416h-8.345v-2.416l2.125-.407V44.303l-2.125-.407zM197.985 41.448v5.365h-3.094l-.156-2.259h-3.689v14.214l2.157.407v2.416h-8.346v-2.416l2.157-.407V44.554h-3.689l-.156 2.26h-3.063v-5.366h17.879zM214.99 47.879h-3.032l-.531-2.761c-.344-.22-.875-.408-1.532-.597a9.173 9.173 0 00-2.125-.25c-1.094 0-1.969.219-2.563.69-.594.47-.907 1.066-.907 1.82 0 .69.313 1.255.938 1.694.625.439 1.719.91 3.251 1.38 2.219.628 3.907 1.444 5.032 2.448 1.157 1.004 1.719 2.353 1.719 4.016 0 1.725-.687 3.075-2.031 4.078-1.376 1.005-3.157 1.507-5.377 1.507-1.594 0-3.032-.252-4.313-.754a9.269 9.269 0 01-3.22-2.102v-4.204h3.126l.438 2.855c.406.345.969.596 1.656.816.688.22 1.469.314 2.313.314 1.094 0 1.938-.22 2.532-.69.563-.44.876-1.067.876-1.82 0-.785-.282-1.412-.813-1.883-.563-.47-1.501-.91-2.876-1.318-2.375-.69-4.188-1.506-5.407-2.478-1.22-.973-1.845-2.26-1.845-3.89 0-1.633.688-2.982 2.063-4.017 1.376-1.035 3.126-1.569 5.189-1.6 1.532 0 2.938.25 4.22.721 1.281.471 2.344 1.099 3.188 1.883v4.142h.031zM17.004 11.232h-2.22v2.228h2.22v-2.228zM14.285 11.232h-2.22v2.228h2.22v-2.228zM22.474 14.025h-2.22v2.228h2.22v-2.228zM19.723 14.025h-2.22v2.228h2.22v-2.228zM17.004 14.025h-2.22v2.228h2.22v-2.228zM14.285 14.025h-2.22v2.228h2.22v-2.228zM10.627 14.025h-2.22v2.228h2.22v-2.228zM2.22 14.025H0v2.228h2.22v-2.228zM22.474 19.64h-2.22v2.228h2.22v-2.227zM19.723 19.64h-2.22v2.228h2.22v-2.227zM17.004 19.64h-2.22v2.228h2.22v-2.227zM14.285 19.64h-2.22v2.228h2.22v-2.227zM22.474 28.081h-2.22v2.228h2.22V28.08zM19.723 28.081h-2.22v2.228h2.22V28.08zM22.474 30.873h-2.22v2.228h2.22v-2.228zM17.004 30.873h-2.22v2.228h2.22v-2.228zM14.285 30.873h-2.22v2.228h2.22v-2.228zM22.474 33.696h-2.22v2.228h2.22v-2.228zM19.723 33.696h-2.22v2.228h2.22v-2.228zM17.004 33.696h-2.22v2.228h2.22v-2.228zM19.723 39.283h-2.22v2.228h2.22v-2.228zM17.004 39.283h-2.22v2.228h2.22v-2.228zM22.474 42.107h-2.22v2.228h2.22v-2.228zM19.723 42.107h-2.22v2.228h2.22v-2.228zM14.285 42.107h-2.22v2.228h2.22v-2.228zM17.004 44.897h-2.22v2.227h2.22v-2.227zM7.847 44.897h-2.22v2.227h2.22v-2.227zM22.474 50.516h-2.22v2.227h2.22v-2.227zM19.723 50.516h-2.22v2.227h2.22v-2.227zM17.004 50.516h-2.22v2.227h2.22v-2.227zM14.285 50.516h-2.22v2.227h2.22v-2.227zM22.474 53.339h-2.22v2.227h2.22V53.34zM22.474 58.923h-2.22v2.227h2.22v-2.227zM19.723 58.923h-2.22v2.227h2.22v-2.227zM17.004 58.923h-2.22v2.227h2.22v-2.227zM14.285 58.923h-2.22v2.227h2.22v-2.227zM19.723 61.746h-2.22v2.228h2.22v-2.228zM17.723 67.365h-2.22v2.228h2.22v-2.228zM20.442 70.154h-2.219v2.228h2.22v-2.228zM14.567 70.154h-2.22v2.228h2.22v-2.228zM25.193 30.873h-2.22v2.228h2.22v-2.228zM25.193 28.081h-2.22v2.228h2.22V28.08zM25.193 47.723h-2.22v2.227h2.22v-2.227zM25.193 33.696h-2.22v2.228h2.22v-2.228zM25.193 44.897h-2.22v2.227h2.22v-2.227zM25.193 42.107h-2.22v2.228h2.22v-2.228zM25.193 39.283h-2.22v2.228h2.22v-2.228zM25.193 36.49h-2.22v2.227h2.22v-2.228zM27.944 53.339h-2.22v2.227h2.22V53.34zM27.944 50.516h-2.22v2.227h2.22v-2.227zM25.193 22.465h-2.22v2.227h2.22v-2.227zM27.944 47.723h-2.22v2.227h2.22v-2.227zM25.193 19.64h-2.22v2.228h2.22v-2.227zM27.944 44.897h-2.22v2.227h2.22v-2.227zM25.193 11.232h-2.22v2.228h2.22v-2.228zM25.193 14.025h-2.22v2.228h2.22v-2.228zM25.193 10.638V9.414l-1.938.753a1.265 1.265 0 00-.281.157v.314h2.219zM30.663 7.31l-1.406.533h1.406V7.31zM27.913 10.635V8.438h-.157l-2.031.785v1.412h2.188zM36.103 67.365h-2.22v.314a31.957 31.957 0 002.22 1.882v-2.196zM33.382 56.13h-2.219v2.228h2.22v-2.227zM41.573 70.154h-2.22v1.883c.157.125.313.22.47.345h1.75v-2.228zM45.106 75.772c.656.377 1.282.753 1.938 1.099v-1.099h-1.938zM36.853 70.154c.656.502 1.313 1.036 2 1.506v-1.506h-2zM27.944 30.873h-2.22v2.228h2.22v-2.228zM30.663 30.873h-2.22v2.228h2.22v-2.228zM30.663 33.696h-2.22v2.228h2.22v-2.228zM30.663 28.081h-2.22v2.228h2.22V28.08zM30.663 42.107h-2.22v2.228h2.22v-2.228zM30.663 44.897h-2.22v2.227h2.22v-2.227zM30.663 39.283h-2.22v2.228h2.22v-2.228zM30.663 36.49h-2.22v2.227h2.22v-2.228zM30.663 25.257h-2.22v2.227h2.22v-2.227zM30.663 8.438h-2.22v2.228h2.22V8.438zM33.382 61.746h-2.219v2.228h2.22v-2.228zM33.382 58.923h-2.219v2.227h2.22v-2.227zM30.663 19.64h-2.22v2.228h2.22v-2.227zM30.663 22.465h-2.22v2.227h2.22v-2.227zM30.663 11.232h-2.22v2.228h2.22v-2.228zM30.663 14.025h-2.22v2.228h2.22v-2.228zM27.944 25.257h-2.22v2.227h2.22v-2.227zM27.944 28.081h-2.22v2.228h2.22V28.08zM27.944 22.465h-2.22v2.227h2.22v-2.227zM33.382 7.843v-1.6l-2.219.847v.753h2.22zM27.944 42.107h-2.22v2.228h2.22v-2.228zM27.944 39.283h-2.22v2.228h2.22v-2.228zM27.944 36.49h-2.22v2.227h2.22v-2.228zM27.944 33.696h-2.22v2.228h2.22v-2.228zM30.663 53.339h-2.22v2.227h2.22V53.34zM30.663 56.13h-2.22v2.228h2.22v-2.227zM30.663 47.723h-2.22v2.227h2.22v-2.227zM30.663 50.516h-2.22v2.227h2.22v-2.227zM27.944 19.64h-2.22v2.228h2.22v-2.227zM27.944 14.025h-2.22v2.228h2.22v-2.228zM27.944 11.232h-2.22v2.228h2.22v-2.228zM30.663 58.923h-2.22v2.227h2.22v-2.227zM44.292 72.978h-2.219v.942c.688.439 1.344.878 2.032 1.286h.156v-2.228h.031zM27.944 67.365h-2.22v2.228h2.22v-2.228zM27.944 64.54h-2.22v2.228h2.22V64.54zM41.573 72.978h-2.188v2.197h2.188v-2.197zM33.382 67.365h-2.219v2.228h2.22v-2.228zM30.663 64.54h-2.22v2.228h2.22V64.54zM36.103 7.844V5.616h-1.157l-1.031.408v1.82h2.188zM22.974 50.516v2.227H25.193v-2.227h-2.22zM41.573 5.022V3.045l-2.22.847v1.13h2.22zM38.853 5.02v-.91l-2.22.847v.063h2.22zM44.293 5.021V2.825H42.105v2.196h2.188zM44.293 1.976l-.626.25h.626v-.25zM47.043 2.227V.909l-2.22.879v.439h2.22zM23.818 53.339h-.844v2.196H25.193V53.34h-1.375zM24.974 56.13h-2v2.228h2.219v-2.227h-.219zM41.573 25.257h-2.22v2.227h2.22v-2.227zM44.324 67.365h-2.219v2.228h2.22v-2.228zM44.324 53.339h-2.219v2.227h2.22V53.34zM44.324 50.516h-2.219v2.227h2.22v-2.227zM44.324 64.54h-2.219v2.228h2.22V64.54zM44.324 25.257h-2.219v2.227h2.22v-2.227zM44.324 58.923h-2.219v2.227h2.22v-2.227zM44.324 61.746h-2.219v2.228h2.22v-2.228zM44.324 56.13h-2.219v2.228h2.22v-2.227zM44.324 30.873h-2.219v2.228h2.22v-2.228zM44.324 44.897h-2.219v2.227h2.22v-2.227zM44.324 28.081h-2.219v2.228h2.22V28.08zM44.324 33.696h-2.219v2.228h2.22v-2.228zM44.324 42.107h-2.219v2.228h2.22v-2.228zM44.324 39.283h-2.219v2.228h2.22v-2.228zM44.324 36.49h-2.219v2.227h2.22v-2.228zM44.324 47.723h-2.219v2.227h2.22v-2.227zM41.573 36.49h-2.22v2.227h2.22v-2.228zM41.573 33.696h-2.22v2.228h2.22v-2.228zM41.573 39.283h-2.22v2.228h2.22v-2.228zM41.573 42.107h-2.22v2.228h2.22v-2.228zM41.573 28.081h-2.22v2.228h2.22V28.08zM41.573 47.723h-2.22v2.227h2.22v-2.227zM41.573 44.897h-2.22v2.227h2.22v-2.227zM41.573 8.438h-2.22v2.228h2.22V8.438zM44.324 70.154h-2.219v2.228h2.22v-2.228zM41.573 5.616h-2.22v2.228h2.22V5.616zM41.573 11.232h-2.22v2.228h2.22v-2.228zM41.573 14.025h-2.22v2.228h2.22v-2.228zM41.573 19.64h-2.22v2.228h2.22v-2.227zM41.573 16.85h-2.22v2.227h2.22V16.85zM41.573 22.465h-2.22v2.227h2.22v-2.227zM47.043 58.923h-2.22v2.227h2.22v-2.227zM47.043 36.49h-2.22v2.227h2.22v-2.228zM47.043 30.873h-2.22v2.228h2.22v-2.228zM47.043 28.081h-2.22v2.228h2.22V28.08zM47.043 44.897h-2.22v2.227h2.22v-2.227zM47.043 39.283h-2.22v2.228h2.22v-2.228zM47.043 25.257h-2.22v2.227h2.22v-2.227zM47.043 42.107h-2.22v2.228h2.22v-2.228zM47.043 2.825h-2.22v2.228h2.22V2.825zM47.043 8.438h-2.22v2.228h2.22V8.438zM47.043 5.616h-2.22v2.228h2.22V5.616zM47.043 47.723h-2.22v2.227h2.22v-2.227zM47.043 22.465h-2.22v2.227h2.22v-2.227zM47.043 16.85h-2.22v2.227h2.22V16.85zM47.043 14.025h-2.22v2.228h2.22v-2.228zM44.324 22.465h-2.219v2.227h2.22v-2.227zM47.043 11.232h-2.22v2.228h2.22v-2.228zM44.324 8.438h-2.219v2.228h2.22V8.438zM44.324 5.616h-2.219v2.228h2.22V5.616zM44.324 11.232h-2.219v2.228h2.22v-2.228zM47.043 72.978h-2.22v2.228h2.22v-2.228zM44.324 19.64h-2.219v2.228h2.22v-2.227zM44.324 16.85h-2.219v2.227h2.22V16.85zM47.043 50.516h-2.22v2.227h2.22v-2.227zM44.324 14.025h-2.219v2.228h2.22v-2.228zM41.573 50.516h-2.22v2.227h2.22v-2.227zM47.043 56.13h-2.22v2.228h2.22v-2.227zM47.043 53.339h-2.22v2.227h2.22V53.34zM47.043 64.54h-2.22v2.228h2.22V64.54zM47.043 61.746h-2.22v2.228h2.22v-2.228zM47.043 67.365h-2.22v2.228h2.22v-2.228zM47.043 70.154h-2.22v2.228h2.22v-2.228zM38.853 22.465h-2.22v2.227h2.22v-2.227zM36.134 50.516h-2.219v2.227h2.22v-2.227zM36.134 53.339h-2.219v2.227h2.22V53.34zM36.134 47.723h-2.219v2.227h2.22v-2.227zM36.134 58.923h-2.219v2.227h2.22v-2.227zM36.134 61.746h-2.219v2.228h2.22v-2.228zM36.134 56.13h-2.219v2.228h2.22v-2.227zM36.134 64.54h-2.219v2.228h2.22V64.54zM36.134 44.897h-2.219v2.227h2.22v-2.227zM36.134 25.257h-2.219v2.227h2.22v-2.227zM41.573 53.339h-2.22v2.227h2.22V53.34zM36.134 28.081h-2.219v2.228h2.22V28.08zM36.134 36.49h-2.219v2.227h2.22v-2.228zM36.134 30.873h-2.219v2.228h2.22v-2.228zM36.134 42.107h-2.219v2.228h2.22v-2.228zM36.134 33.696h-2.219v2.228h2.22v-2.228zM33.382 36.49h-2.219v2.227h2.22v-2.228zM33.382 39.283h-2.219v2.228h2.22v-2.228zM33.382 42.107h-2.219v2.228h2.22v-2.228zM33.382 33.696h-2.219v2.228h2.22v-2.228zM36.134 19.64h-2.219v2.228h2.22v-2.227zM33.382 8.438h-2.219v2.228h2.22V8.438zM33.382 50.516h-2.219v2.227h2.22v-2.227zM33.382 47.723h-2.219v2.227h2.22v-2.227zM33.382 44.897h-2.219v2.227h2.22v-2.227zM33.382 16.85h-2.219v2.227h2.22V16.85zM33.382 14.025h-2.219v2.228h2.22v-2.228zM33.382 11.232h-2.219v2.228h2.22v-2.228zM33.382 28.081h-2.219v2.228h2.22V28.08zM33.382 30.873h-2.219v2.228h2.22v-2.228zM33.382 25.257h-2.219v2.227h2.22v-2.227zM33.382 19.64h-2.219v2.228h2.22v-2.227zM36.134 22.465h-2.219v2.227h2.22v-2.227zM38.853 16.85h-2.22v2.227h2.22V16.85zM38.853 19.64h-2.22v2.228h2.22v-2.227zM38.853 14.025h-2.22v2.228h2.22v-2.228zM38.853 28.081h-2.22v2.228h2.22V28.08zM38.853 30.873h-2.22v2.228h2.22v-2.228zM33.382 53.339h-2.219v2.227h2.22V53.34zM38.853 25.257h-2.22v2.227h2.22v-2.227zM38.853 11.232h-2.22v2.228h2.22v-2.228zM41.573 58.923h-2.22v2.227h2.22v-2.227zM41.573 56.13h-2.22v2.228h2.22v-2.227zM41.573 61.746h-2.22v2.228h2.22v-2.228zM38.853 5.616h-2.22v2.228h2.22V5.616zM38.853 8.438h-2.22v2.228h2.22V8.438zM41.573 67.365h-2.22v2.228h2.22v-2.228zM41.573 64.54h-2.22v2.228h2.22V64.54zM38.853 42.107h-2.22v2.228h2.22v-2.228zM38.853 58.923h-2.22v2.227h2.22v-2.227zM38.853 61.746h-2.22v2.228h2.22v-2.228zM38.853 67.365h-2.22v2.228h2.22v-2.228zM38.853 64.54h-2.22v2.228h2.22V64.54zM36.134 14.025h-2.219v2.228h2.22v-2.228zM36.134 8.438h-2.219v2.228h2.22V8.438zM36.134 11.232h-2.219v2.228h2.22v-2.228zM38.853 47.723h-2.22v2.227h2.22v-2.227zM38.853 39.283h-2.22v2.228h2.22v-2.228zM36.134 16.85h-2.219v2.227h2.22V16.85zM38.853 36.49h-2.22v2.227h2.22v-2.228zM38.853 33.696h-2.22v2.228h2.22v-2.228zM38.853 50.516h-2.22v2.227h2.22v-2.227zM38.853 56.13h-2.22v2.228h2.22v-2.227zM38.853 44.897h-2.22v2.227h2.22v-2.227z"/><path d="M17.004 11.232h-2.22v2.228h2.22v-2.228zM14.285 11.232h-2.22v2.228h2.22v-2.228zM22.474 14.025h-2.22v2.228h2.22v-2.228zM19.723 14.025h-2.22v2.228h2.22v-2.228zM17.004 14.025h-2.22v2.228h2.22v-2.228zM14.285 14.025h-2.22v2.228h2.22v-2.228zM10.627 14.025h-2.22v2.228h2.22v-2.228zM2.22 14.025H0v2.228h2.22v-2.228zM22.474 19.64h-2.22v2.228h2.22v-2.227zM19.723 19.64h-2.22v2.228h2.22v-2.227zM17.004 19.64h-2.22v2.228h2.22v-2.227zM14.285 19.64h-2.22v2.228h2.22v-2.227zM22.474 28.081h-2.22v2.228h2.22V28.08zM19.723 28.081h-2.22v2.228h2.22V28.08zM22.474 30.873h-2.22v2.228h2.22v-2.228zM17.004 30.873h-2.22v2.228h2.22v-2.228zM14.285 30.873h-2.22v2.228h2.22v-2.228zM22.474 33.696h-2.22v2.228h2.22v-2.228zM19.723 33.696h-2.22v2.228h2.22v-2.228zM17.004 33.696h-2.22v2.228h2.22v-2.228zM19.723 39.283h-2.22v2.228h2.22v-2.228zM17.004 39.283h-2.22v2.228h2.22v-2.228zM22.474 42.107h-2.22v2.228h2.22v-2.228zM19.723 42.107h-2.22v2.228h2.22v-2.228zM14.285 42.107h-2.22v2.228h2.22v-2.228zM17.004 44.897h-2.22v2.227h2.22v-2.227zM7.847 44.897h-2.22v2.227h2.22v-2.227zM22.474 50.516h-2.22v2.227h2.22v-2.227zM19.723 50.516h-2.22v2.227h2.22v-2.227zM17.004 50.516h-2.22v2.227h2.22v-2.227zM14.285 50.516h-2.22v2.227h2.22v-2.227zM22.474 53.339h-2.22v2.227h2.22V53.34zM22.474 58.923h-2.22v2.227h2.22v-2.227zM19.723 58.923h-2.22v2.227h2.22v-2.227zM17.004 58.923h-2.22v2.227h2.22v-2.227zM14.285 58.923h-2.22v2.227h2.22v-2.227zM33.258 64.54h-2.22v2.228h2.22V64.54zM28.007 58.733h-2.375v2.385h2.375v-2.385zM27.914 61.621h-2.22v2.228h2.22V61.62zM25.256 61.621h-2.219v2.228h2.22V61.62zM66.36 64.571c5.096-5.553 8.565-12.205 8.565-20.206V11.201c0-.722-.5-1.318-1.156-1.537L47.762.063C47.7.03 47.637.03 47.575 0v78c.25 0 .531-.063.75-.188 6.439-3.483 13.034-7.813 18.036-13.24z"/></svg><svg fill="none" viewBox="0 0 347 120" id="ni-gr-developer" xmlns="http://www.w3.org/2000/svg"><path fill="#42E727" d="M0 0h120v120H0z"/><path d="M53.719 14.2h15.872v2.432c-.81.64-1.707 1.216-2.688 1.728-.981.47-1.899.832-2.752 1.088v40.32h-5.44l-22.592-32.64-2.56-4.928h-.192l.576 5.12v26.688c.853.213 1.792.576 2.816 1.088 1.067.47 1.963.96 2.688 1.472V59H23.639v-2.432c.768-.512 1.6-.981 2.496-1.408.939-.47 1.899-.853 2.88-1.152V19.064a33.725 33.725 0 01-2.56-1.152 19.302 19.302 0 01-2.304-1.344V14.2h13.824l18.368 26.624 2.944 5.504h.256l-.32-5.504V19.448a26.08 26.08 0 01-3.008-1.216 19.387 19.387 0 01-2.496-1.6V14.2zM96.907 59H79.243v-2.496c.64-.341 1.301-.619 1.984-.832.683-.256 1.43-.49 2.24-.704V31.544l-4.224-.512v-2.496a22.27 22.27 0 012.368-.768c.981-.256 2.005-.47 3.072-.64a43.534 43.534 0 013.136-.512c1.024-.17 1.92-.299 2.688-.384h2.176v28.736c.853.213 1.621.448 2.304.704.683.213 1.323.49 1.92.832V59zM82.379 16.504c0-1.493.512-2.667 1.536-3.52 1.024-.853 2.347-1.28 3.968-1.28s2.944.427 3.968 1.28 1.536 2.027 1.536 3.52c0 1.45-.512 2.603-1.536 3.456-1.024.853-2.347 1.28-3.968 1.28s-2.944-.427-3.968-1.28-1.536-2.005-1.536-3.456zm-20.91 89.68c-.853.427-1.898.853-3.136 1.28a46.53 46.53 0 01-3.904 1.152c-1.365.341-2.73.619-4.096.832-1.365.213-2.581.32-3.648.32-3.67 0-6.955-.469-9.856-1.408-2.858-.981-5.312-2.432-7.36-4.352-2.005-1.963-3.541-4.395-4.608-7.296-1.067-2.901-1.6-6.272-1.6-10.112 0-4.181.64-7.723 1.92-10.624 1.323-2.944 3.05-5.333 5.184-7.168a20.526 20.526 0 017.36-4.096 27.95 27.95 0 018.384-1.28c2.816 0 5.462.192 7.936.576 2.475.384 4.438.939 5.888 1.664 0 .64-.042 1.472-.128 2.496a48.032 48.032 0 01-.256 3.2 48.235 48.235 0 01-.512 3.456 27.02 27.02 0 01-.64 3.136h-2.624l-3.584-9.728c-.47-.213-1.173-.363-2.112-.448a20.819 20.819 0 00-2.816-.192c-1.75 0-3.434.341-5.056 1.024-1.621.683-3.05 1.792-4.288 3.328-1.237 1.493-2.218 3.456-2.944 5.888-.725 2.39-1.088 5.312-1.088 8.768 0 2.816.32 5.397.96 7.744.683 2.304 1.622 4.288 2.816 5.952 1.195 1.664 2.624 2.965 4.288 3.904 1.664.939 3.499 1.408 5.504 1.408.64 0 1.301-.043 1.984-.128a21.139 21.139 0 001.92-.448 9.02 9.02 0 001.536-.576c.47-.213.79-.405.96-.576V91.848a12.401 12.401 0 01-3.136-.64 17.901 17.901 0 01-2.752-1.216V87.56h17.472v2.432c-.384.384-.896.747-1.536 1.088-.64.299-1.45.555-2.432.768v14.336zM91.1 84.36c-.512.256-1.11.683-1.792 1.28-.683.597-1.301 1.579-1.856 2.944v16.384a13.58 13.58 0 012.56.512c.853.213 1.707.555 2.56 1.024V109h-18.56v-2.496a11.684 11.684 0 012.176-.96 37.322 37.322 0 012.048-.576V81.544l-4.224-.512v-2.496c.683-.299 1.515-.576 2.496-.832 1.024-.256 2.07-.47 3.136-.64a46.109 46.109 0 013.072-.512l2.56-.32h2.176v8.512h.256c.341-.939.832-1.92 1.472-2.944a16.573 16.573 0 012.368-2.816 11.421 11.421 0 012.944-2.048 6.988 6.988 0 013.328-.704c.47.597.875 1.45 1.216 2.56a33.35 33.35 0 01.832 3.072v2.496H91.1z" fill="#1400FB"/><path fill="#D9D9D9" d="M120 0h227v120H120z"/><path d="M105.874 75v-1.52c.454-.267.96-.493 1.52-.68a9.52 9.52 0 011.76-.48V49.68a19.854 19.854 0 01-1.8-.48 11.07 11.07 0 01-1.48-.68V47h4.64a43.1 43.1 0 001.68-.04c.667-.027 1.36-.053 2.08-.08.72-.053 1.414-.093 2.08-.12.694-.053 1.28-.08 1.76-.08 2.32 0 4.387.307 6.2.92 1.84.613 3.387 1.507 4.64 2.68 1.28 1.173 2.254 2.627 2.92 4.36.694 1.733 1.04 3.733 1.04 6 0 2.213-.32 4.227-.96 6.04-.64 1.813-1.6 3.36-2.88 4.64-1.28 1.28-2.906 2.28-4.88 3-1.946.693-4.24 1.04-6.88 1.04-.346 0-.813-.027-1.4-.08a55.257 55.257 0 01-1.88-.12 50.515 50.515 0 01-2-.12 44.557 44.557 0 00-1.76-.04h-4.4zm11.72-25.72c-.48 0-.96.013-1.44.04-.48.027-.893.067-1.24.12V72.6c.107.027.294.053.56.08.267 0 .534.013.8.04.294 0 .574.013.84.04h.6c1.547 0 2.854-.32 3.92-.96a7.8 7.8 0 002.68-2.6c.694-1.093 1.2-2.373 1.52-3.84.32-1.467.48-3.027.48-4.68 0-1.467-.173-2.88-.52-4.24-.32-1.36-.826-2.573-1.52-3.64a7.82 7.82 0 00-2.72-2.56c-1.093-.64-2.413-.96-3.96-.96zm40.373 22.36c-.213.453-.56.92-1.04 1.4-.453.453-1.026.867-1.72 1.24-.666.347-1.453.627-2.36.84-.88.24-1.84.36-2.88.36-1.653 0-3.12-.24-4.4-.72-1.28-.507-2.346-1.213-3.2-2.12-.853-.933-1.506-2.04-1.96-3.32-.426-1.28-.64-2.72-.64-4.32 0-3.413.894-6.013 2.68-7.8 1.787-1.787 4.267-2.68 7.44-2.68 1.36 0 2.627.187 3.8.56 1.2.373 2.187.987 2.96 1.84.8.853 1.347 1.973 1.64 3.36.32 1.387.307 3.08-.04 5.08h-12.28c.027 2.107.56 3.787 1.6 5.04 1.067 1.253 2.627 1.88 4.68 1.88.88 0 1.787-.133 2.72-.4.96-.267 1.707-.613 2.24-1.04l.76.8zm-8.24-14.84c-.533 0-1.013.093-1.44.28-.4.187-.76.533-1.08 1.04-.293.48-.533 1.147-.72 2-.186.827-.32 1.88-.4 3.16h6.44c.187-2.08.067-3.68-.36-4.8-.426-1.12-1.24-1.68-2.44-1.68zm23.341 18.68l-8-17.96a11.868 11.868 0 01-2.12-.96V55h10.52v1.52c-.347.187-.707.373-1.08.56-.347.16-.747.307-1.2.44l3.72 10.24.76 2.68h.08l.64-2.72 3.4-10.2a7.894 7.894 0 01-1.2-.4 7.346 7.346 0 01-1-.56V55h7.72v1.56c-.267.187-.6.36-1 .52-.374.16-.8.307-1.28.44l-7 17.48-2.96.48zm34.696-3.84c-.213.453-.56.92-1.04 1.4-.453.453-1.026.867-1.72 1.24-.666.347-1.453.627-2.36.84-.88.24-1.84.36-2.88.36-1.653 0-3.12-.24-4.4-.72-1.28-.507-2.346-1.213-3.2-2.12-.853-.933-1.506-2.04-1.96-3.32-.426-1.28-.64-2.72-.64-4.32 0-3.413.894-6.013 2.68-7.8 1.787-1.787 4.267-2.68 7.44-2.68 1.36 0 2.627.187 3.8.56 1.2.373 2.187.987 2.96 1.84.8.853 1.347 1.973 1.64 3.36.32 1.387.307 3.08-.04 5.08h-12.28c.027 2.107.56 3.787 1.6 5.04 1.067 1.253 2.627 1.88 4.68 1.88.88 0 1.787-.133 2.72-.4.96-.267 1.707-.613 2.24-1.04l.76.8zm-8.24-14.84c-.533 0-1.013.093-1.44.28-.4.187-.76.533-1.08 1.04-.293.48-.533 1.147-.72 2-.186.827-.32 1.88-.4 3.16h6.44c.187-2.08.067-3.68-.36-4.8-.426-1.12-1.24-1.68-2.44-1.68zM226.089 75h-11.04v-1.56c.88-.427 1.76-.747 2.64-.96V48.24l-3.04-.32v-1.56c.346-.16.826-.32 1.44-.48.613-.16 1.266-.293 1.96-.4a31.39 31.39 0 012.12-.32c.72-.107 1.36-.187 1.92-.24h1.36v27.56c.88.213 1.76.533 2.64.96V75zm6.241-10c0-1.627.24-3.08.72-4.36.507-1.307 1.213-2.413 2.12-3.32.933-.907 2.053-1.6 3.36-2.08s2.787-.72 4.44-.72c1.867 0 3.467.267 4.8.8 1.36.507 2.467 1.227 3.32 2.16.88.907 1.52 2.013 1.92 3.32.4 1.28.6 2.68.6 4.2 0 1.627-.24 3.093-.72 4.4-.48 1.28-1.187 2.373-2.12 3.28-.907.907-2.027 1.6-3.36 2.08-1.307.48-2.787.72-4.44.72-1.813 0-3.387-.253-4.72-.76-1.333-.533-2.44-1.253-3.32-2.16-.88-.933-1.533-2.04-1.96-3.32-.427-1.307-.64-2.72-.64-4.24zm6.2 0c0 1.2.067 2.307.2 3.32.16.987.427 1.827.8 2.52a4.29 4.29 0 001.52 1.64c.64.373 1.467.56 2.48.56.587 0 1.12-.133 1.6-.4.48-.293.893-.747 1.24-1.36.347-.64.6-1.467.76-2.48.187-1.04.28-2.307.28-3.8 0-1.227-.08-2.333-.24-3.32-.133-.987-.387-1.827-.76-2.52-.347-.693-.827-1.227-1.44-1.6-.613-.4-1.387-.6-2.32-.6-.693 0-1.293.147-1.8.44-.507.267-.933.72-1.28 1.36-.347.613-.613 1.44-.8 2.48-.16 1.013-.24 2.267-.24 3.76zm32.19 18h-11.04v-1.56a14.463 14.463 0 012.64-.96V57.84l-2.64-.32v-1.56c.427-.187.947-.36 1.56-.52.64-.16 1.293-.293 1.96-.4.667-.133 1.307-.24 1.92-.32l1.6-.2h1.36V59h.04c.453-1.28 1.16-2.347 2.12-3.2.987-.853 2.347-1.28 4.08-1.28 1.173 0 2.227.2 3.16.6.96.373 1.76.973 2.4 1.8.667.8 1.173 1.84 1.52 3.12.373 1.253.56 2.76.56 4.52 0 1.68-.24 3.2-.72 4.56-.453 1.36-1.12 2.507-2 3.44-.853.933-1.907 1.653-3.16 2.16-1.227.507-2.627.76-4.2.76-.907 0-1.627-.067-2.16-.2-.507-.107-1.053-.307-1.64-.6v5.8c.427.053.853.147 1.28.28.427.16.88.387 1.36.68V83zM272 57.72c-.907 0-1.72.32-2.44.96-.693.64-1.187 1.627-1.48 2.96v10.64c.427.32.88.56 1.36.72.48.133 1.107.2 1.88.2 1.52 0 2.64-.733 3.36-2.2.72-1.467 1.08-3.613 1.08-6.44 0-2.187-.28-3.867-.84-5.04-.533-1.2-1.507-1.8-2.92-1.8zm34.655 13.92c-.213.453-.56.92-1.04 1.4-.453.453-1.027.867-1.72 1.24-.667.347-1.453.627-2.36.84-.88.24-1.84.36-2.88.36-1.653 0-3.12-.24-4.4-.72-1.28-.507-2.347-1.213-3.2-2.12-.853-.933-1.507-2.04-1.96-3.32-.427-1.28-.64-2.72-.64-4.32 0-3.413.893-6.013 2.68-7.8 1.787-1.787 4.267-2.68 7.44-2.68 1.36 0 2.627.187 3.8.56 1.2.373 2.187.987 2.96 1.84.8.853 1.347 1.973 1.64 3.36.32 1.387.307 3.08-.04 5.08h-12.28c.027 2.107.56 3.787 1.6 5.04 1.067 1.253 2.627 1.88 4.68 1.88.88 0 1.787-.133 2.72-.4.96-.267 1.707-.613 2.24-1.04l.76.8zm-8.24-14.84c-.533 0-1.013.093-1.44.28-.4.187-.76.533-1.08 1.04-.293.48-.533 1.147-.72 2-.187.827-.32 1.88-.4 3.16h6.44c.187-2.08.067-3.68-.36-4.8-.427-1.12-1.24-1.68-2.44-1.68zm25.884 2.8c-.32.16-.693.427-1.12.8-.426.373-.813.987-1.16 1.84v10.24c.534.053 1.067.16 1.6.32a6.67 6.67 0 011.6.64V75h-11.6v-1.56c.48-.267.934-.467 1.36-.6.427-.133.854-.253 1.28-.36V57.84l-2.64-.32v-1.56c.427-.187.947-.36 1.56-.52.64-.16 1.294-.293 1.96-.4.667-.133 1.307-.24 1.92-.32l1.6-.2h1.36v5.32h.16c.214-.587.52-1.2.92-1.84.427-.64.92-1.227 1.48-1.76a7.15 7.15 0 011.84-1.28 4.368 4.368 0 012.08-.44c.294.373.547.907.76 1.6.214.667.387 1.307.52 1.92v1.56h-5.48z" fill="#000"/></svg></svg>