<svg width="216" height="78" viewBox="0 0 216 78" xmlns="http://www.w3.org/2000/svg">
<path d="M92.117 11.8271C94.4925 11.8271 96.3367 12.2978 97.6496 13.2077C98.9624 14.1176 99.65 15.4981 99.65 17.3493C99.65 18.2905 99.4 19.1063 98.8999 19.8593C98.3997 20.581 97.6808 21.1457 96.7431 21.5222C97.9621 21.7732 98.8374 22.338 99.4625 23.1852C100.056 24.0323 100.369 25.0049 100.369 26.1345C100.369 28.0798 99.7438 29.523 98.4623 30.5271C97.1807 31.5311 95.399 32.0017 93.0547 32.0017H83.1772V29.5858L85.3028 29.1779V14.6823L83.1772 14.2745V11.8271H85.3028H92.117ZM89.3663 20.2672H92.2732C93.336 20.2672 94.18 20.0476 94.7426 19.6083C95.3052 19.1691 95.6178 18.5102 95.6178 17.663C95.6178 16.7218 95.3365 16.0315 94.7426 15.5922C94.1487 15.153 93.2735 14.9333 92.117 14.9333H89.3663V20.2672ZM89.3663 23.0597V28.8642H93.0859C94.1487 28.8642 94.9614 28.6445 95.524 28.1739C96.0867 27.7033 96.368 27.013 96.368 26.1031C96.368 25.1304 96.1179 24.3461 95.6491 23.844C95.1802 23.3107 94.43 23.0597 93.3985 23.0597H89.3663Z"/>
<path d="M109.62 14.2745L107.963 14.5255L111.089 21.1457H111.183L114.309 14.5255L112.683 14.2745V11.8271H120.279V14.2745L118.56 14.5568L113.09 24.9108V29.1779L115.246 29.5858V32.0017H106.932V29.5858L109.089 29.1779V24.6912L103.712 14.5568L102.024 14.2745V11.8271H109.62V14.2745Z"/>
<path d="M139.69 11.8271V17.1924H136.595L136.439 14.9333H132.751V29.1465L134.908 29.5544V31.9704H126.562V29.5544L128.718 29.1465V14.9333H125.03L124.874 17.1924H121.811V11.8271H139.69Z"/>
<path d="M154.383 23.1224H147.568V28.8955H154.039L154.226 26.4796H157.29V32.0017H141.411V29.5858L143.536 29.1779V14.6823L141.411 14.2745V11.8271H143.536H157.258V17.3493H154.164L153.976 14.9333H147.537V20.0162H154.351L154.383 23.1224Z"/>
<path d="M175.168 18.2606H172.136L171.605 15.4995C171.261 15.2799 170.73 15.0916 170.073 14.9034C169.417 14.7465 168.698 14.6523 167.948 14.6523C166.854 14.6523 165.978 14.872 165.384 15.3426C164.791 15.8132 164.478 16.4094 164.478 17.1624C164.478 17.8527 164.791 18.4174 165.416 18.8567C166.041 19.2959 167.135 19.7666 168.667 20.2372C170.886 20.8647 172.574 21.6805 173.699 22.6845C174.856 23.6885 175.418 25.0377 175.418 26.7006C175.418 28.4263 174.731 29.7754 173.386 30.7795C172.011 31.7835 170.229 32.2855 168.01 32.2855C166.416 32.2855 164.978 32.0345 163.697 31.5325C162.415 31.0305 161.352 30.3088 160.477 29.4303V25.1946H163.603L164.04 28.0498C164.447 28.3949 165.009 28.6459 165.697 28.8655C166.385 29.0852 167.166 29.1793 168.01 29.1793C169.104 29.1793 169.948 28.9597 170.542 28.489C171.105 28.0498 171.417 27.4223 171.417 26.6692C171.417 25.8848 171.136 25.2573 170.605 24.7867C170.042 24.3161 169.104 23.8768 167.729 23.4689C165.353 22.7787 163.54 21.9629 162.321 20.9902C161.102 20.049 160.477 18.7312 160.477 17.0997C160.477 15.4681 161.165 14.119 162.54 13.0836C163.915 12.0482 165.666 11.5148 167.729 11.4834C169.26 11.4834 170.667 11.7344 171.949 12.205C173.23 12.6757 174.293 13.3032 175.137 14.0876V18.2606H175.168Z"/>
<path d="M83.0195 56.1618C83.0195 55.0636 83.3321 54.1224 83.926 53.338C84.5199 52.5536 85.4264 51.7378 86.6454 50.8593C86.0203 50.0121 85.5514 49.2277 85.2388 48.5375C84.9263 47.8472 84.77 47.1256 84.77 46.4039C84.77 44.8038 85.2701 43.5174 86.2703 42.5761C87.2706 41.6348 88.5834 41.1328 90.2713 41.1328C91.7404 41.1328 92.9282 41.5721 93.8347 42.482C94.7412 43.3919 95.21 44.49 95.21 45.7764C95.21 46.6863 94.9912 47.5021 94.5224 48.2551C94.0848 49.0081 93.4596 49.667 92.6782 50.2318L91.3966 51.1417L95.21 55.597C95.5539 55.0322 95.8039 54.4361 95.9915 53.8086C96.179 53.1497 96.2728 52.4908 96.2728 51.7692H99.2735C99.2735 53.0556 99.1172 54.2165 98.8047 55.2833C98.4921 56.35 98.0232 57.2913 97.3668 58.1384L100.243 61.527L100.211 61.5898H95.7414L94.6786 60.3661C93.8972 60.8681 93.0845 61.2446 92.2718 61.4956C91.4591 61.7466 90.5526 61.8721 89.6149 61.8721C87.6144 61.8721 86.0203 61.3388 84.8325 60.272C83.6134 59.268 83.0195 57.8874 83.0195 56.1618ZM89.8024 58.7973C90.3026 58.7973 90.7714 58.7346 91.2716 58.6091C91.7717 58.4836 92.2406 58.2953 92.6782 58.0443L88.5521 53.2125L88.3021 53.4007C87.8332 53.84 87.5206 54.2792 87.3331 54.6871C87.1768 55.095 87.083 55.5343 87.083 55.9421C87.083 56.7579 87.3331 57.4482 87.8332 57.9816C88.3333 58.515 88.9897 58.7973 89.8024 58.7973ZM88.3958 46.3726C88.3958 46.7804 88.4896 47.1883 88.6772 47.5962C88.8647 48.0041 89.1773 48.4747 89.5524 48.9767L90.7402 48.1923C91.2403 47.8472 91.6154 47.5335 91.7717 47.1569C91.9592 46.8118 92.053 46.4353 92.053 45.996C92.053 45.5254 91.8967 45.1175 91.5529 44.7724C91.209 44.4273 90.7714 44.239 90.2401 44.239C89.6462 44.239 89.1773 44.4273 88.8647 44.8351C88.5521 45.2744 88.3958 45.7764 88.3958 46.3726Z"/>
<path d="M117.623 41.4482C119.905 41.4482 121.686 41.9816 122.999 43.017C124.281 44.0524 124.937 45.5271 124.937 47.3469C124.937 48.3509 124.656 49.2294 124.124 49.9824C123.593 50.7354 122.78 51.3316 121.749 51.8022C122.937 52.1474 123.781 52.7435 124.312 53.5593C124.843 54.375 125.093 55.379 125.093 56.6027V57.6381C125.093 58.0774 125.187 58.4225 125.343 58.6735C125.531 58.9245 125.812 59.05 126.219 59.1128L126.719 59.1755V61.6228H124.625C123.312 61.6228 122.374 61.2777 121.843 60.556C121.311 59.8344 121.03 58.9245 121.03 57.795V56.6341C121.03 55.6614 120.78 54.877 120.248 54.3437C119.717 53.7789 118.998 53.4965 118.06 53.4651H114.778V58.7676L116.935 59.1755V61.5914H108.621V59.1755L110.746 58.7676V44.3034L108.621 43.8955V41.4482H110.746H117.623ZM114.747 50.3276H117.529C118.654 50.3276 119.498 50.0766 120.061 49.6059C120.624 49.1353 120.905 48.445 120.905 47.5351C120.905 46.6252 120.624 45.9036 120.061 45.3702C119.498 44.8368 118.686 44.5544 117.592 44.5544H114.747V50.3276Z"/>
<path d="M128.438 43.8955V41.4482H136.753V43.8955L134.596 44.3034V58.7676L136.753 59.1755V61.5914H128.438V59.1755L130.595 58.7676V44.3034L128.438 43.8955Z"/>
<path d="M155.35 59.3629C154.693 60.0218 153.756 60.5866 152.505 61.12C151.255 61.6534 149.661 61.9044 147.754 61.9044C145.035 61.9044 142.847 60.9945 141.128 59.1747C139.44 57.3549 138.564 54.9703 138.564 52.0524V51.3621C138.564 48.3501 139.408 45.9028 141.096 43.9889C142.784 42.1063 144.972 41.165 147.66 41.165C149.223 41.165 150.661 41.416 151.974 41.9181C153.287 42.4201 154.35 43.1103 155.225 43.9575V48.0049H152.255L151.693 45.3066C151.318 44.9929 150.849 44.7419 150.224 44.5536C149.63 44.3654 148.942 44.2712 148.161 44.2712C146.41 44.2712 145.035 44.9301 144.066 46.2165C143.097 47.5029 142.597 49.2286 142.597 51.3308V52.0524C142.597 54.0918 143.066 55.7234 144.035 56.947C145.004 58.1707 146.379 58.7668 148.161 58.7668C148.973 58.7668 149.63 58.7041 150.13 58.5472C150.63 58.4217 151.036 58.2334 151.318 58.0765V54.6566L148.442 54.437V51.6131H155.35V59.3629Z"/>
<path d="M157.79 43.8955V41.4482H166.104V43.8955L163.947 44.3034V50.1079H172.168V44.3034L170.011 43.8955V41.4482H172.168H176.169H178.326V43.8955L176.169 44.3034V58.7676L178.326 59.1755V61.5914H170.011V59.1755L172.168 58.7676V53.2141H163.979V58.7676L166.135 59.1755V61.5914H157.79V59.1755L159.915 58.7676V44.3034L157.79 43.8955Z"/>
<path d="M197.985 41.4482V46.8135H194.891L194.735 44.5544H191.046V58.7676L193.203 59.1755V61.5914H184.857V59.1755L187.014 58.7676V44.5544H183.325L183.169 46.8135H180.106V41.4482H197.985Z"/>
<path d="M214.99 47.8786H211.958L211.427 45.1175C211.083 44.8979 210.552 44.7096 209.895 44.5214C209.239 44.3645 208.52 44.2704 207.77 44.2704C206.676 44.2704 205.801 44.49 205.207 44.9606C204.613 45.4313 204.3 46.0274 204.3 46.7804C204.3 47.4707 204.613 48.0355 205.238 48.4747C205.863 48.914 206.957 49.3846 208.489 49.8553C210.708 50.4828 212.396 51.2985 213.521 52.3026C214.678 53.3066 215.24 54.6557 215.24 56.3187C215.24 58.0443 214.553 59.3935 213.209 60.3975C211.833 61.4015 210.052 61.9035 207.832 61.9035C206.238 61.9035 204.8 61.6525 203.519 61.1505C202.237 60.6485 201.175 59.9269 200.299 59.0483V54.844H203.425L203.863 57.6992C204.269 58.0443 204.832 58.2953 205.519 58.5149C206.207 58.7346 206.988 58.8287 207.832 58.8287C208.926 58.8287 209.77 58.6091 210.364 58.1384C210.927 57.6992 211.24 57.0717 211.24 56.3187C211.24 55.5343 210.958 54.9067 210.427 54.4361C209.864 53.9655 208.926 53.5262 207.551 53.1183C205.176 52.4281 203.363 51.6123 202.144 50.6396C200.924 49.667 200.299 48.3806 200.299 46.7491C200.299 45.1175 200.987 43.7684 202.362 42.733C203.738 41.6976 205.488 41.1642 207.551 41.1328C209.083 41.1328 210.489 41.3838 211.771 41.8544C213.052 42.3251 214.115 42.9526 214.959 43.737V47.8786H214.99Z"/>
<path d="M17.004 11.2324H14.7847V13.4601H17.004V11.2324Z"/>
<path d="M14.2847 11.2324H12.0654V13.4601H14.2847V11.2324Z"/>
<path d="M22.4742 14.0254H20.2549V16.2531H22.4742V14.0254Z"/>
<path d="M19.7227 14.0254H17.5034V16.2531H19.7227V14.0254Z"/>
<path d="M17.004 14.0254H14.7847V16.2531H17.004V14.0254Z"/>
<path d="M14.2847 14.0254H12.0654V16.2531H14.2847V14.0254Z"/>
<path d="M10.627 14.0254H8.40771V16.2531H10.627V14.0254Z"/>
<path d="M2.2193 14.0254H0V16.2531H2.2193V14.0254Z"/>
<path d="M22.4742 19.6406H20.2549V21.8683H22.4742V19.6406Z"/>
<path d="M19.7227 19.6406H17.5034V21.8683H19.7227V19.6406Z"/>
<path d="M17.004 19.6406H14.7847V21.8683H17.004V19.6406Z"/>
<path d="M14.2847 19.6406H12.0654V21.8683H14.2847V19.6406Z"/>
<path d="M22.4742 28.0811H20.2549V30.3087H22.4742V28.0811Z"/>
<path d="M19.7227 28.0811H17.5034V30.3087H19.7227V28.0811Z"/>
<path d="M22.4742 30.873H20.2549V33.1007H22.4742V30.873Z"/>
<path d="M17.004 30.873H14.7847V33.1007H17.004V30.873Z"/>
<path d="M14.2847 30.873H12.0654V33.1007H14.2847V30.873Z"/>
<path d="M22.4742 33.6963H20.2549V35.924H22.4742V33.6963Z"/>
<path d="M19.7227 33.6963H17.5034V35.924H19.7227V33.6963Z"/>
<path d="M17.004 33.6963H14.7847V35.924H17.004V33.6963Z"/>
<path d="M19.7227 39.2832H17.5034V41.5109H19.7227V39.2832Z"/>
<path d="M17.004 39.2832H14.7847V41.5109H17.004V39.2832Z"/>
<path d="M22.4742 42.1074H20.2549V44.3351H22.4742V42.1074Z"/>
<path d="M19.7227 42.1074H17.5034V44.3351H19.7227V42.1074Z"/>
<path d="M14.2847 42.1074H12.0654V44.3351H14.2847V42.1074Z"/>
<path d="M17.004 44.8965H14.7847V47.1242H17.004V44.8965Z"/>
<path d="M7.84674 44.8965H5.62744V47.1242H7.84674V44.8965Z"/>
<path d="M22.4742 50.5156H20.2549V52.7433H22.4742V50.5156Z"/>
<path d="M19.7227 50.5156H17.5034V52.7433H19.7227V50.5156Z"/>
<path d="M17.004 50.5156H14.7847V52.7433H17.004V50.5156Z"/>
<path d="M14.2847 50.5156H12.0654V52.7433H14.2847V50.5156Z"/>
<path d="M22.4742 53.3389H20.2549V55.5665H22.4742V53.3389Z"/>
<path d="M22.4742 58.9229H20.2549V61.1505H22.4742V58.9229Z"/>
<path d="M19.7227 58.9229H17.5034V61.1505H19.7227V58.9229Z"/>
<path d="M17.004 58.9229H14.7847V61.1505H17.004V58.9229Z"/>
<path d="M14.2847 58.9229H12.0654V61.1505H14.2847V58.9229Z"/>
<path d="M19.7227 61.7461H17.5034V63.9738H19.7227V61.7461Z"/>
<path d="M17.7227 67.3652H15.5034V69.5929H17.7227V67.3652Z"/>
<path d="M20.4424 70.1543H18.2231V72.382H20.4424V70.1543Z"/>
<path d="M14.567 70.1543H12.3477V72.382H14.567V70.1543Z"/>
<path d="M25.1929 30.873H22.9736V33.1007H25.1929V30.873Z"/>
<path d="M25.1929 28.0811H22.9736V30.3087H25.1929V28.0811Z"/>
<path d="M25.1929 47.7227H22.9736V49.9503H25.1929V47.7227Z"/>
<path d="M25.1929 33.6963H22.9736V35.924H25.1929V33.6963Z"/>
<path d="M25.1929 44.8965H22.9736V47.1242H25.1929V44.8965Z"/>
<path d="M25.1929 42.1074H22.9736V44.3351H25.1929V42.1074Z"/>
<path d="M25.1929 39.2832H22.9736V41.5109H25.1929V39.2832Z"/>
<path d="M25.1929 36.4893H22.9736V38.7169H25.1929V36.4893Z"/>
<path d="M27.9439 53.3389H25.7246V55.5665H27.9439V53.3389Z"/>
<path d="M27.9439 50.5156H25.7246V52.7433H27.9439V50.5156Z"/>
<path d="M25.1929 22.4648H22.9736V24.6925H25.1929V22.4648Z"/>
<path d="M27.9439 47.7227H25.7246V49.9503H27.9439V47.7227Z"/>
<path d="M25.1929 19.6406H22.9736V21.8683H25.1929V19.6406Z"/>
<path d="M27.9439 44.8965H25.7246V47.1242H27.9439V44.8965Z"/>
<path d="M25.1929 11.2324H22.9736V13.4601H25.1929V11.2324Z"/>
<path d="M25.1929 14.0254H22.9736V16.2531H25.1929V14.0254Z"/>
<path d="M25.1929 10.6377V9.41406L23.255 10.1671C23.1612 10.1985 23.0674 10.2612 22.9736 10.324V10.6377H25.1929Z"/>
<path d="M30.6634 7.30957L29.2568 7.84296H30.6634V7.30957Z"/>
<path d="M27.9126 10.6348V8.43848H27.7564L25.7246 9.22287V10.6348H27.9126Z"/>
<path d="M36.1031 67.3652H33.8838V67.679C34.6027 68.3379 35.3216 68.9654 36.1031 69.5615V67.3652Z"/>
<path d="M33.3824 56.1309H31.1631V58.3585H33.3824V56.1309Z"/>
<path d="M41.5728 70.1543H39.3535V72.0368C39.5098 72.1623 39.6661 72.2565 39.8224 72.382H41.5728V70.1543Z"/>
<path d="M45.106 75.7725C45.7624 76.149 46.3875 76.5255 47.0439 76.8706V75.7725H45.106Z"/>
<path d="M36.853 70.1543C37.5094 70.6563 38.1659 71.1897 38.8535 71.6603V70.1543H36.853Z"/>
<path d="M27.9439 30.873H25.7246V33.1007H27.9439V30.873Z"/>
<path d="M30.6627 30.873H28.4434V33.1007H30.6627V30.873Z"/>
<path d="M30.6627 33.6963H28.4434V35.924H30.6627V33.6963Z"/>
<path d="M30.6627 28.0811H28.4434V30.3087H30.6627V28.0811Z"/>
<path d="M30.6627 42.1074H28.4434V44.3351H30.6627V42.1074Z"/>
<path d="M30.6627 44.8965H28.4434V47.1242H30.6627V44.8965Z"/>
<path d="M30.6627 39.2832H28.4434V41.5109H30.6627V39.2832Z"/>
<path d="M30.6627 36.4893H28.4434V38.7169H30.6627V36.4893Z"/>
<path d="M30.6627 25.2568H28.4434V27.4845H30.6627V25.2568Z"/>
<path d="M30.6627 8.43848H28.4434V10.6662H30.6627V8.43848Z"/>
<path d="M33.3824 61.7461H31.1631V63.9738H33.3824V61.7461Z"/>
<path d="M33.3824 58.9229H31.1631V61.1505H33.3824V58.9229Z"/>
<path d="M30.6627 19.6406H28.4434V21.8683H30.6627V19.6406Z"/>
<path d="M30.6627 22.4648H28.4434V24.6925H30.6627V22.4648Z"/>
<path d="M30.6627 11.2324H28.4434V13.4601H30.6627V11.2324Z"/>
<path d="M30.6627 14.0254H28.4434V16.2531H30.6627V14.0254Z"/>
<path d="M27.9439 25.2568H25.7246V27.4845H27.9439V25.2568Z"/>
<path d="M27.9439 28.0811H25.7246V30.3087H27.9439V28.0811Z"/>
<path d="M27.9439 22.4648H25.7246V24.6925H27.9439V22.4648Z"/>
<path d="M33.3824 7.84332V6.24316L31.1631 7.09031V7.84332H33.3824Z"/>
<path d="M27.9439 42.1074H25.7246V44.3351H27.9439V42.1074Z"/>
<path d="M27.9439 39.2832H25.7246V41.5109H27.9439V39.2832Z"/>
<path d="M27.9439 36.4893H25.7246V38.7169H27.9439V36.4893Z"/>
<path d="M27.9439 33.6963H25.7246V35.924H27.9439V33.6963Z"/>
<path d="M30.6627 53.3389H28.4434V55.5665H30.6627V53.3389Z"/>
<path d="M30.6627 56.1309H28.4434V58.3585H30.6627V56.1309Z"/>
<path d="M30.6627 47.7227H28.4434V49.9503H30.6627V47.7227Z"/>
<path d="M30.6627 50.5156H28.4434V52.7433H30.6627V50.5156Z"/>
<path d="M27.9439 19.6406H25.7246V21.8683H27.9439V19.6406Z"/>
<path d="M27.9439 14.0254H25.7246V16.2531H27.9439V14.0254Z"/>
<path d="M27.9439 11.2324H25.7246V13.4601H27.9439V11.2324Z"/>
<path d="M30.6627 58.9229H28.4434V61.1505H30.6627V58.9229Z"/>
<path d="M44.2925 72.9785H42.0732V73.9198C42.7609 74.359 43.4173 74.7983 44.105 75.2062H44.2613V72.9785H44.2925Z"/>
<path d="M27.9439 67.3652H25.7246V69.5929H27.9439V67.3652Z"/>
<path d="M27.9439 64.54H25.7246V66.7677H27.9439V64.54Z"/>
<path d="M41.5733 72.9785H40.6668H39.3853V75.1748H41.5733V72.9785Z"/>
<path d="M33.3824 67.3652H31.1631V69.5929H33.3824V67.3652Z"/>
<path d="M30.6627 64.54H28.4434V66.7677H30.6627V64.54Z"/>
<path d="M36.1031 7.84389V5.61621H34.9465L33.915 6.0241V7.84389H36.1031Z"/>
<path d="M22.9736 50.5156V52.7433H23.5988H25.1929V50.5156H22.9736Z"/>
<path d="M41.5728 5.02159V3.04492L39.3535 3.89207V5.02159H41.5728Z"/>
<path d="M38.8526 5.02025V4.11035L36.6333 4.9575V5.02025H38.8526Z"/>
<path d="M44.293 5.02149V2.8252H42.1675H42.105V5.02149H44.293Z"/>
<path d="M44.2926 1.97559L43.6675 2.22659H44.2926V1.97559Z"/>
<path d="M47.043 2.22696V0.90918L44.8237 1.7877V2.22696H47.043Z"/>
<path d="M23.8176 53.3389H22.9736V55.5352H24.6928H25.1929V53.3389H23.8176Z"/>
<path d="M24.9741 56.1309H22.9736V58.3585H25.1929V56.6015V56.1309H24.9741Z"/>
<path d="M41.5728 25.2568H39.3535V27.4845H41.5728V25.2568Z"/>
<path d="M44.3243 67.3652H42.105V69.5929H44.3243V67.3652Z"/>
<path d="M44.3243 53.3389H42.105V55.5665H44.3243V53.3389Z"/>
<path d="M44.3243 50.5156H42.105V52.7433H44.3243V50.5156Z"/>
<path d="M44.3243 64.54H42.105V66.7677H44.3243V64.54Z"/>
<path d="M44.3243 25.2568H42.105V27.4845H44.3243V25.2568Z"/>
<path d="M44.3243 58.9229H42.105V61.1505H44.3243V58.9229Z"/>
<path d="M44.3243 61.7461H42.105V63.9738H44.3243V61.7461Z"/>
<path d="M44.3243 56.1309H42.105V58.3585H44.3243V56.1309Z"/>
<path d="M44.3243 30.873H42.105V33.1007H44.3243V30.873Z"/>
<path d="M44.3243 44.8965H42.105V47.1242H44.3243V44.8965Z"/>
<path d="M44.3243 28.0811H42.105V30.3087H44.3243V28.0811Z"/>
<path d="M44.3243 33.6963H42.105V35.924H44.3243V33.6963Z"/>
<path d="M44.3243 42.1074H42.105V44.3351H44.3243V42.1074Z"/>
<path d="M44.3243 39.2832H42.105V41.5109H44.3243V39.2832Z"/>
<path d="M44.3243 36.4893H42.105V38.7169H44.3243V36.4893Z"/>
<path d="M44.3243 47.7227H42.105V49.9503H44.3243V47.7227Z"/>
<path d="M41.5728 36.4893H39.3535V38.7169H41.5728V36.4893Z"/>
<path d="M41.5728 33.6963H39.3535V35.924H41.5728V33.6963Z"/>
<path d="M41.5728 39.2832H39.3535V41.5109H41.5728V39.2832Z"/>
<path d="M41.5728 42.1074H39.3535V44.3351H41.5728V42.1074Z"/>
<path d="M41.5728 28.0811H39.3535V30.3087H41.5728V28.0811Z"/>
<path d="M41.5728 47.7227H39.3535V49.9503H41.5728V47.7227Z"/>
<path d="M41.5728 44.8965H39.3535V47.1242H41.5728V44.8965Z"/>
<path d="M41.5728 8.43848H39.3535V10.6662H41.5728V8.43848Z"/>
<path d="M44.3243 70.1543H42.105V72.382H44.3243V70.1543Z"/>
<path d="M41.5728 5.61621H39.3535V7.84389H41.5728V5.61621Z"/>
<path d="M41.5728 11.2324H39.3535V13.4601H41.5728V11.2324Z"/>
<path d="M41.5728 14.0254H39.3535V16.2531H41.5728V14.0254Z"/>
<path d="M41.5728 19.6406H39.3535V21.8683H41.5728V19.6406Z"/>
<path d="M41.5728 16.8496H39.3535V19.0773H41.5728V16.8496Z"/>
<path d="M41.5728 22.4648H39.3535V24.6925H41.5728V22.4648Z"/>
<path d="M47.043 58.9229H44.8237V61.1505H47.043V58.9229Z"/>
<path d="M47.043 36.4893H44.8237V38.7169H47.043V36.4893Z"/>
<path d="M47.043 30.873H44.8237V33.1007H47.043V30.873Z"/>
<path d="M47.043 28.0811H44.8237V30.3087H47.043V28.0811Z"/>
<path d="M47.043 44.8965H44.8237V47.1242H47.043V44.8965Z"/>
<path d="M47.043 39.2832H44.8237V41.5109H47.043V39.2832Z"/>
<path d="M47.043 25.2568H44.8237V27.4845H47.043V25.2568Z"/>
<path d="M47.043 42.1074H44.8237V44.3351H47.043V42.1074Z"/>
<path d="M47.043 2.8252H44.8237V5.05287H47.043V2.8252Z"/>
<path d="M47.043 8.43848H44.8237V10.6662H47.043V8.43848Z"/>
<path d="M47.043 5.61621H44.8237V7.84389H47.043V5.61621Z"/>
<path d="M47.043 47.7227H44.8237V49.9503H47.043V47.7227Z"/>
<path d="M47.043 22.4648H44.8237V24.6925H47.043V22.4648Z"/>
<path d="M47.043 16.8496H44.8237V19.0773H47.043V16.8496Z"/>
<path d="M47.043 14.0254H44.8237V16.2531H47.043V14.0254Z"/>
<path d="M44.3243 22.4648H42.105V24.6925H44.3243V22.4648Z"/>
<path d="M47.043 11.2324H44.8237V13.4601H47.043V11.2324Z"/>
<path d="M44.3243 8.43848H42.105V10.6662H44.3243V8.43848Z"/>
<path d="M44.3243 5.61621H42.105V7.84389H44.3243V5.61621Z"/>
<path d="M44.3243 11.2324H42.105V13.4601H44.3243V11.2324Z"/>
<path d="M47.043 72.9785H44.8237V75.2062H47.043V72.9785Z"/>
<path d="M44.3243 19.6406H42.105V21.8683H44.3243V19.6406Z"/>
<path d="M44.3243 16.8496H42.105V19.0773H44.3243V16.8496Z"/>
<path d="M47.043 50.5156H44.8237V52.7433H47.043V50.5156Z"/>
<path d="M44.3243 14.0254H42.105V16.2531H44.3243V14.0254Z"/>
<path d="M41.5728 50.5156H39.3535V52.7433H41.5728V50.5156Z"/>
<path d="M47.043 56.1309H44.8237V58.3585H47.043V56.1309Z"/>
<path d="M47.043 53.3389H44.8237V55.5665H47.043V53.3389Z"/>
<path d="M47.043 64.54H44.8237V66.7677H47.043V64.54Z"/>
<path d="M47.043 61.7461H44.8237V63.9738H47.043V61.7461Z"/>
<path d="M47.043 67.3652H44.8237V69.5929H47.043V67.3652Z"/>
<path d="M47.043 70.1543H44.8237V72.382H47.043V70.1543Z"/>
<path d="M38.8526 22.4648H36.6333V24.6925H38.8526V22.4648Z"/>
<path d="M36.1343 50.5156H33.915V52.7433H36.1343V50.5156Z"/>
<path d="M36.1343 53.3389H33.915V55.5665H36.1343V53.3389Z"/>
<path d="M36.1343 47.7227H33.915V49.9503H36.1343V47.7227Z"/>
<path d="M36.1343 58.9229H33.915V61.1505H36.1343V58.9229Z"/>
<path d="M36.1343 61.7461H33.915V63.9738H36.1343V61.7461Z"/>
<path d="M36.1343 56.1309H33.915V58.3585H36.1343V56.1309Z"/>
<path d="M36.1343 64.54H33.915V66.7677H36.1343V64.54Z"/>
<path d="M36.1343 44.8965H33.915V47.1242H36.1343V44.8965Z"/>
<path d="M36.1343 25.2568H33.915V27.4845H36.1343V25.2568Z"/>
<path d="M41.5728 53.3389H39.3535V55.5665H41.5728V53.3389Z"/>
<path d="M36.1343 28.0811H33.915V30.3087H36.1343V28.0811Z"/>
<path d="M36.1343 36.4893H33.915V38.7169H36.1343V36.4893Z"/>
<path d="M36.1343 30.873H33.915V33.1007H36.1343V30.873Z"/>
<path d="M36.1343 42.1074H33.915V44.3351H36.1343V42.1074Z"/>
<path d="M36.1343 33.6963H33.915V35.924H36.1343V33.6963Z"/>
<path d="M33.3824 36.4893H31.1631V38.7169H33.3824V36.4893Z"/>
<path d="M33.3824 39.2832H31.1631V41.5109H33.3824V39.2832Z"/>
<path d="M33.3824 42.1074H31.1631V44.3351H33.3824V42.1074Z"/>
<path d="M33.3824 33.6963H31.1631V35.924H33.3824V33.6963Z"/>
<path d="M36.1343 19.6406H33.915V21.8683H36.1343V19.6406Z"/>
<path d="M33.3824 8.43848H31.1631V10.6662H33.3824V8.43848Z"/>
<path d="M33.3824 50.5156H31.1631V52.7433H33.3824V50.5156Z"/>
<path d="M33.3824 47.7227H31.1631V49.9503H33.3824V47.7227Z"/>
<path d="M33.3824 44.8965H31.1631V47.1242H33.3824V44.8965Z"/>
<path d="M33.3824 16.8496H31.1631V19.0773H33.3824V16.8496Z"/>
<path d="M33.3824 14.0254H31.1631V16.2531H33.3824V14.0254Z"/>
<path d="M33.3824 11.2324H31.1631V13.4601H33.3824V11.2324Z"/>
<path d="M33.3824 28.0811H31.1631V30.3087H33.3824V28.0811Z"/>
<path d="M33.3824 30.873H31.1631V33.1007H33.3824V30.873Z"/>
<path d="M33.3824 25.2568H31.1631V27.4845H33.3824V25.2568Z"/>
<path d="M33.3824 19.6406H31.1631V21.8683H33.3824V19.6406Z"/>
<path d="M36.1343 22.4648H33.915V24.6925H36.1343V22.4648Z"/>
<path d="M38.8526 16.8496H36.6333V19.0773H38.8526V16.8496Z"/>
<path d="M38.8526 19.6406H36.6333V21.8683H38.8526V19.6406Z"/>
<path d="M38.8526 14.0254H36.6333V16.2531H38.8526V14.0254Z"/>
<path d="M38.8526 28.0811H36.6333V30.3087H38.8526V28.0811Z"/>
<path d="M38.8526 30.873H36.6333V33.1007H38.8526V30.873Z"/>
<path d="M33.3824 53.3389H31.1631V55.5665H33.3824V53.3389Z"/>
<path d="M38.8526 25.2568H36.6333V27.4845H38.8526V25.2568Z"/>
<path d="M38.8526 11.2324H36.6333V13.4601H38.8526V11.2324Z"/>
<path d="M41.5728 58.9229H39.3535V61.1505H41.5728V58.9229Z"/>
<path d="M41.5728 56.1309H39.3535V58.3585H41.5728V56.1309Z"/>
<path d="M41.5728 61.7461H39.3535V63.9738H41.5728V61.7461Z"/>
<path d="M38.8526 5.61621H36.6333V7.84389H38.8526V5.61621Z"/>
<path d="M38.8526 8.43848H36.6333V10.6662H38.8526V8.43848Z"/>
<path d="M41.5728 67.3652H39.3535V69.5929H41.5728V67.3652Z"/>
<path d="M41.5728 64.54H39.3535V66.7677H41.5728V64.54Z"/>
<path d="M38.8526 42.1074H36.6333V44.3351H38.8526V42.1074Z"/>
<path d="M38.8526 58.9229H36.6333V61.1505H38.8526V58.9229Z"/>
<path d="M38.8526 61.7461H36.6333V63.9738H38.8526V61.7461Z"/>
<path d="M38.8526 67.3652H36.6333V69.5929H38.8526V67.3652Z"/>
<path d="M38.8526 64.54H36.6333V66.7677H38.8526V64.54Z"/>
<path d="M36.1343 14.0254H33.915V16.2531H36.1343V14.0254Z"/>
<path d="M36.1343 8.43848H33.915V10.6662H36.1343V8.43848Z"/>
<path d="M36.1343 11.2324H33.915V13.4601H36.1343V11.2324Z"/>
<path d="M38.8526 47.7227H36.6333V49.9503H38.8526V47.7227Z"/>
<path d="M38.8526 39.2832H36.6333V41.5109H38.8526V39.2832Z"/>
<path d="M36.1343 16.8496H33.915V19.0773H36.1343V16.8496Z"/>
<path d="M38.8526 36.4893H36.6333V38.7169H38.8526V36.4893Z"/>
<path d="M38.8526 33.6963H36.6333V35.924H38.8526V33.6963Z"/>
<path d="M38.8526 50.5156H36.6333V52.7433H38.8526V50.5156Z"/>
<path d="M38.8526 56.1309H36.6333V58.3585H38.8526V56.1309Z"/>
<path d="M38.8526 44.8965H36.6333V47.1242H38.8526V44.8965Z"/>
<path d="M17.004 11.2324H14.7847V13.4601H17.004V11.2324Z"/>
<path d="M14.2847 11.2324H12.0654V13.4601H14.2847V11.2324Z"/>
<path d="M22.4742 14.0254H20.2549V16.2531H22.4742V14.0254Z"/>
<path d="M19.7227 14.0254H17.5034V16.2531H19.7227V14.0254Z"/>
<path d="M17.004 14.0254H14.7847V16.2531H17.004V14.0254Z"/>
<path d="M14.2847 14.0254H12.0654V16.2531H14.2847V14.0254Z"/>
<path d="M10.627 14.0254H8.40771V16.2531H10.627V14.0254Z"/>
<path d="M2.2193 14.0254H0V16.2531H2.2193V14.0254Z"/>
<path d="M22.4742 19.6406H20.2549V21.8683H22.4742V19.6406Z"/>
<path d="M19.7227 19.6406H17.5034V21.8683H19.7227V19.6406Z"/>
<path d="M17.004 19.6406H14.7847V21.8683H17.004V19.6406Z"/>
<path d="M14.2847 19.6406H12.0654V21.8683H14.2847V19.6406Z"/>
<path d="M22.4742 28.0811H20.2549V30.3087H22.4742V28.0811Z"/>
<path d="M19.7227 28.0811H17.5034V30.3087H19.7227V28.0811Z"/>
<path d="M22.4742 30.873H20.2549V33.1007H22.4742V30.873Z"/>
<path d="M17.004 30.873H14.7847V33.1007H17.004V30.873Z"/>
<path d="M14.2847 30.873H12.0654V33.1007H14.2847V30.873Z"/>
<path d="M22.4742 33.6963H20.2549V35.924H22.4742V33.6963Z"/>
<path d="M19.7227 33.6963H17.5034V35.924H19.7227V33.6963Z"/>
<path d="M17.004 33.6963H14.7847V35.924H17.004V33.6963Z"/>
<path d="M19.7227 39.2832H17.5034V41.5109H19.7227V39.2832Z"/>
<path d="M17.004 39.2832H14.7847V41.5109H17.004V39.2832Z"/>
<path d="M22.4742 42.1074H20.2549V44.3351H22.4742V42.1074Z"/>
<path d="M19.7227 42.1074H17.5034V44.3351H19.7227V42.1074Z"/>
<path d="M14.2847 42.1074H12.0654V44.3351H14.2847V42.1074Z"/>
<path d="M17.004 44.8965H14.7847V47.1242H17.004V44.8965Z"/>
<path d="M7.84674 44.8965H5.62744V47.1242H7.84674V44.8965Z"/>
<path d="M22.4742 50.5156H20.2549V52.7433H22.4742V50.5156Z"/>
<path d="M19.7227 50.5156H17.5034V52.7433H19.7227V50.5156Z"/>
<path d="M17.004 50.5156H14.7847V52.7433H17.004V50.5156Z"/>
<path d="M14.2847 50.5156H12.0654V52.7433H14.2847V50.5156Z"/>
<path d="M22.4742 53.3389H20.2549V55.5665H22.4742V53.3389Z"/>
<path d="M22.4742 58.9229H20.2549V61.1505H22.4742V58.9229Z"/>
<path d="M19.7227 58.9229H17.5034V61.1505H19.7227V58.9229Z"/>
<path d="M17.004 58.9229H14.7847V61.1505H17.004V58.9229Z"/>
<path d="M14.2847 58.9229H12.0654V61.1505H14.2847V58.9229Z"/>
<path d="M33.2579 64.54H31.0386V66.7677H33.2579V64.54Z"/>
<path d="M28.0074 58.7334H25.6318V61.118H28.0074V58.7334Z"/>
<path d="M27.9141 61.6211H25.6948V63.8488H27.9141V61.6211Z"/>
<path d="M25.2564 61.6211H23.0371V63.8488H25.2564V61.6211Z"/>
<path d="M66.3606 64.5712C71.4556 59.0177 74.9252 52.366 74.9252 44.3652V11.2011C74.9252 10.4795 74.4251 9.88335 73.7687 9.66372L47.7623 0.0627514C47.6997 0.0313757 47.6372 0.0313757 47.5747 0V78C47.8248 78 48.1061 77.9372 48.3249 77.8117C54.764 74.329 61.3594 69.9992 66.3606 64.5712Z"/>
</svg>
