<svg width="347" height="120" viewBox="0 0 347 120" fill="none" xmlns="http://www.w3.org/2000/svg">
<rect width="120" height="120" fill="#42E727"/>
<path d="M53.719 14.2H69.591V16.632C68.7803 17.272 67.8843 17.848 66.903 18.36C65.9216 18.8293 65.0043 19.192 64.151 19.448V59.768H58.711L36.119 27.128L33.559 22.2H33.367L33.943 27.32V54.008C34.7963 54.2213 35.735 54.584 36.759 55.096C37.8256 55.5653 38.7216 56.056 39.447 56.568V59H23.639V56.568C24.407 56.056 25.239 55.5867 26.135 55.16C27.0736 54.6907 28.0336 54.3067 29.015 54.008V19.064C28.1616 18.7227 27.3083 18.3387 26.455 17.912C25.6016 17.4853 24.8336 17.0373 24.151 16.568V14.2H37.975L56.343 40.824L59.287 46.328H59.543L59.223 40.824V19.448C58.199 19.1067 57.1963 18.7013 56.215 18.232C55.2763 17.72 54.4443 17.1867 53.719 16.632V14.2ZM96.907 59H79.243V56.504C79.883 56.1627 80.5443 55.8853 81.227 55.672C81.9096 55.416 82.6563 55.1813 83.467 54.968V31.544L79.243 31.032V28.536C79.883 28.28 80.6723 28.024 81.611 27.768C82.5923 27.512 83.6163 27.2987 84.683 27.128C85.7496 26.9147 86.795 26.744 87.819 26.616C88.843 26.4453 89.739 26.3173 90.507 26.232H92.683V54.968C93.5363 55.1813 94.3043 55.416 94.987 55.672C95.6696 55.8853 96.3096 56.1627 96.907 56.504V59ZM82.379 16.504C82.379 15.0107 82.891 13.8373 83.915 12.984C84.939 12.1307 86.2616 11.704 87.883 11.704C89.5043 11.704 90.827 12.1307 91.851 12.984C92.875 13.8373 93.387 15.0107 93.387 16.504C93.387 17.9547 92.875 19.1067 91.851 19.96C90.827 20.8133 89.5043 21.24 87.883 21.24C86.2616 21.24 84.939 20.8133 83.915 19.96C82.891 19.1067 82.379 17.9547 82.379 16.504ZM61.4692 106.184C60.6159 106.611 59.5705 107.037 58.3332 107.464C57.0959 107.891 55.7945 108.275 54.4292 108.616C53.0639 108.957 51.6985 109.235 50.3332 109.448C48.9679 109.661 47.7519 109.768 46.6852 109.768C43.0159 109.768 39.7305 109.299 36.8292 108.36C33.9705 107.379 31.5172 105.928 29.4692 104.008C27.4639 102.045 25.9279 99.6133 24.8612 96.712C23.7945 93.8107 23.2612 90.44 23.2612 86.6C23.2612 82.4187 23.9012 78.8773 25.1812 75.976C26.5039 73.032 28.2319 70.6427 30.3652 68.808C32.5412 66.9307 34.9945 65.5653 37.7252 64.712C40.4559 63.8587 43.2505 63.432 46.1092 63.432C48.9252 63.432 51.5705 63.624 54.0452 64.008C56.5199 64.392 58.4825 64.9467 59.9332 65.672C59.9332 66.312 59.8905 67.144 59.8052 68.168C59.7625 69.1493 59.6772 70.216 59.5492 71.368C59.4212 72.52 59.2505 73.672 59.0372 74.824C58.8665 75.976 58.6532 77.0213 58.3972 77.96H55.7732L52.1892 68.232C51.7199 68.0187 51.0159 67.8693 50.0772 67.784C49.1385 67.656 48.1999 67.592 47.2612 67.592C45.5119 67.592 43.8265 67.9333 42.2052 68.616C40.5839 69.2987 39.1545 70.408 37.9172 71.944C36.6799 73.4373 35.6985 75.4 34.9732 77.832C34.2479 80.2213 33.8852 83.144 33.8852 86.6C33.8852 89.416 34.2052 91.9973 34.8452 94.344C35.5279 96.648 36.4665 98.632 37.6612 100.296C38.8559 101.96 40.2852 103.261 41.9492 104.2C43.6132 105.139 45.4479 105.608 47.4532 105.608C48.0932 105.608 48.7545 105.565 49.4372 105.48C50.1199 105.352 50.7599 105.203 51.3572 105.032C51.9545 104.861 52.4665 104.669 52.8932 104.456C53.3625 104.243 53.6825 104.051 53.8532 103.88V91.848C52.7439 91.7627 51.6985 91.5493 50.7172 91.208C49.7359 90.8667 48.8185 90.4613 47.9652 89.992V87.56H65.4372V89.992C65.0532 90.376 64.5412 90.7387 63.9012 91.08C63.2612 91.3787 62.4505 91.6347 61.4692 91.848V106.184ZM91.1002 84.36C90.5882 84.616 89.9909 85.0427 89.3082 85.64C88.6255 86.2373 88.0069 87.2187 87.4522 88.584V104.968C88.3055 105.053 89.1589 105.224 90.0122 105.48C90.8655 105.693 91.7189 106.035 92.5722 106.504V109H74.0122V106.504C74.7802 106.077 75.5055 105.757 76.1882 105.544C76.8709 105.331 77.5535 105.139 78.2362 104.968V81.544L74.0122 81.032V78.536C74.6949 78.2373 75.5269 77.96 76.5082 77.704C77.5322 77.448 78.5775 77.2347 79.6442 77.064C80.7109 76.8507 81.7349 76.68 82.7162 76.552C83.7402 76.424 84.5935 76.3173 85.2762 76.232H87.4522V84.744H87.7082C88.0495 83.8053 88.5402 82.824 89.1802 81.8C89.8629 80.776 90.6522 79.8373 91.5482 78.984C92.4442 78.1307 93.4255 77.448 94.4922 76.936C95.5589 76.424 96.6682 76.1893 97.8202 76.232C98.2895 76.8293 98.6949 77.6827 99.0362 78.792C99.3775 79.8587 99.6549 80.8827 99.8682 81.864V84.36H91.1002Z" fill="#1400FB"/>
<rect x="120" width="227" height="120" fill="#D9D9D9"/>
<path d="M105.874 75V73.48C106.328 73.2133 106.834 72.9867 107.394 72.8C107.954 72.5867 108.541 72.4267 109.154 72.32V49.68C108.541 49.5467 107.941 49.3867 107.354 49.2C106.794 48.9867 106.301 48.76 105.874 48.52V47H110.514C110.968 47 111.528 46.9867 112.194 46.96C112.861 46.9333 113.554 46.9067 114.274 46.88C114.994 46.8267 115.688 46.7867 116.354 46.76C117.048 46.7067 117.634 46.68 118.114 46.68C120.434 46.68 122.501 46.9867 124.314 47.6C126.154 48.2133 127.701 49.1067 128.954 50.28C130.234 51.4533 131.208 52.9067 131.874 54.64C132.568 56.3733 132.914 58.3733 132.914 60.64C132.914 62.8533 132.594 64.8667 131.954 66.68C131.314 68.4933 130.354 70.04 129.074 71.32C127.794 72.6 126.168 73.6 124.194 74.32C122.248 75.0133 119.954 75.36 117.314 75.36C116.968 75.36 116.501 75.3333 115.914 75.28C115.328 75.2533 114.701 75.2133 114.034 75.16C113.368 75.1333 112.701 75.0933 112.034 75.04C111.368 75.0133 110.781 75 110.274 75H105.874ZM117.594 49.28C117.114 49.28 116.634 49.2933 116.154 49.32C115.674 49.3467 115.261 49.3867 114.914 49.44V72.6C115.021 72.6267 115.208 72.6533 115.474 72.68C115.741 72.68 116.008 72.6933 116.274 72.72C116.568 72.72 116.848 72.7333 117.114 72.76C117.381 72.76 117.581 72.76 117.714 72.76C119.261 72.76 120.568 72.44 121.634 71.8C122.728 71.16 123.621 70.2933 124.314 69.2C125.008 68.1067 125.514 66.8267 125.834 65.36C126.154 63.8933 126.314 62.3333 126.314 60.68C126.314 59.2133 126.141 57.8 125.794 56.44C125.474 55.08 124.968 53.8667 124.274 52.8C123.581 51.7333 122.674 50.88 121.554 50.24C120.461 49.6 119.141 49.28 117.594 49.28ZM157.967 71.64C157.754 72.0933 157.407 72.56 156.927 73.04C156.474 73.4933 155.901 73.9067 155.207 74.28C154.541 74.6267 153.754 74.9067 152.847 75.12C151.967 75.36 151.007 75.48 149.967 75.48C148.314 75.48 146.847 75.24 145.567 74.76C144.287 74.2533 143.221 73.5467 142.367 72.64C141.514 71.7067 140.861 70.6 140.407 69.32C139.981 68.04 139.767 66.6 139.767 65C139.767 61.5867 140.661 58.9867 142.447 57.2C144.234 55.4133 146.714 54.52 149.887 54.52C151.247 54.52 152.514 54.7067 153.687 55.08C154.887 55.4533 155.874 56.0667 156.647 56.92C157.447 57.7733 157.994 58.8933 158.287 60.28C158.607 61.6667 158.594 63.36 158.247 65.36H145.967C145.994 67.4667 146.527 69.1467 147.567 70.4C148.634 71.6533 150.194 72.28 152.247 72.28C153.127 72.28 154.034 72.1467 154.967 71.88C155.927 71.6133 156.674 71.2667 157.207 70.84L157.967 71.64ZM149.727 56.8C149.194 56.8 148.714 56.8933 148.287 57.08C147.887 57.2667 147.527 57.6133 147.207 58.12C146.914 58.6 146.674 59.2667 146.487 60.12C146.301 60.9467 146.167 62 146.087 63.28H152.527C152.714 61.2 152.594 59.6 152.167 58.48C151.741 57.36 150.927 56.8 149.727 56.8ZM173.068 75.48L165.068 57.52C164.294 57.2533 163.588 56.9333 162.948 56.56V55H173.468V56.52C173.121 56.7067 172.761 56.8933 172.388 57.08C172.041 57.24 171.641 57.3867 171.188 57.52L174.908 67.76L175.668 70.44H175.748L176.388 67.72L179.788 57.52C179.361 57.4133 178.961 57.28 178.588 57.12C178.241 56.96 177.908 56.7733 177.588 56.56V55H185.308V56.56C185.041 56.7467 184.708 56.92 184.308 57.08C183.934 57.24 183.508 57.3867 183.028 57.52L176.028 75L173.068 75.48ZM207.764 71.64C207.551 72.0933 207.204 72.56 206.724 73.04C206.271 73.4933 205.698 73.9067 205.004 74.28C204.338 74.6267 203.551 74.9067 202.644 75.12C201.764 75.36 200.804 75.48 199.764 75.48C198.111 75.48 196.644 75.24 195.364 74.76C194.084 74.2533 193.018 73.5467 192.164 72.64C191.311 71.7067 190.658 70.6 190.204 69.32C189.778 68.04 189.564 66.6 189.564 65C189.564 61.5867 190.458 58.9867 192.244 57.2C194.031 55.4133 196.511 54.52 199.684 54.52C201.044 54.52 202.311 54.7067 203.484 55.08C204.684 55.4533 205.671 56.0667 206.444 56.92C207.244 57.7733 207.791 58.8933 208.084 60.28C208.404 61.6667 208.391 63.36 208.044 65.36H195.764C195.791 67.4667 196.324 69.1467 197.364 70.4C198.431 71.6533 199.991 72.28 202.044 72.28C202.924 72.28 203.831 72.1467 204.764 71.88C205.724 71.6133 206.471 71.2667 207.004 70.84L207.764 71.64ZM199.524 56.8C198.991 56.8 198.511 56.8933 198.084 57.08C197.684 57.2667 197.324 57.6133 197.004 58.12C196.711 58.6 196.471 59.2667 196.284 60.12C196.098 60.9467 195.964 62 195.884 63.28H202.324C202.511 61.2 202.391 59.6 201.964 58.48C201.538 57.36 200.724 56.8 199.524 56.8ZM226.089 75H215.049V73.44C215.929 73.0133 216.809 72.6933 217.689 72.48V48.24L214.649 47.92V46.36C214.995 46.2 215.475 46.04 216.089 45.88C216.702 45.72 217.355 45.5867 218.049 45.48C218.769 45.3467 219.475 45.24 220.169 45.16C220.889 45.0533 221.529 44.9733 222.089 44.92H223.449V72.48C224.329 72.6933 225.209 73.0133 226.089 73.44V75ZM232.33 65C232.33 63.3733 232.57 61.92 233.05 60.64C233.557 59.3333 234.263 58.2267 235.17 57.32C236.103 56.4133 237.223 55.72 238.53 55.24C239.837 54.76 241.317 54.52 242.97 54.52C244.837 54.52 246.437 54.7867 247.77 55.32C249.13 55.8267 250.237 56.5467 251.09 57.48C251.97 58.3867 252.61 59.4933 253.01 60.8C253.41 62.08 253.61 63.48 253.61 65C253.61 66.6267 253.37 68.0933 252.89 69.4C252.41 70.68 251.703 71.7733 250.77 72.68C249.863 73.5867 248.743 74.28 247.41 74.76C246.103 75.24 244.623 75.48 242.97 75.48C241.157 75.48 239.583 75.2267 238.25 74.72C236.917 74.1867 235.81 73.4667 234.93 72.56C234.05 71.6267 233.397 70.52 232.97 69.24C232.543 67.9333 232.33 66.52 232.33 65ZM238.53 65C238.53 66.2 238.597 67.3067 238.73 68.32C238.89 69.3067 239.157 70.1467 239.53 70.84C239.903 71.5333 240.41 72.08 241.05 72.48C241.69 72.8533 242.517 73.04 243.53 73.04C244.117 73.04 244.65 72.9067 245.13 72.64C245.61 72.3467 246.023 71.8933 246.37 71.28C246.717 70.64 246.97 69.8133 247.13 68.8C247.317 67.76 247.41 66.4933 247.41 65C247.41 63.7733 247.33 62.6667 247.17 61.68C247.037 60.6933 246.783 59.8533 246.41 59.16C246.063 58.4667 245.583 57.9333 244.97 57.56C244.357 57.16 243.583 56.96 242.65 56.96C241.957 56.96 241.357 57.1067 240.85 57.4C240.343 57.6667 239.917 58.12 239.57 58.76C239.223 59.3733 238.957 60.2 238.77 61.24C238.61 62.2533 238.53 63.5067 238.53 65ZM270.72 83H259.68V81.44C260.587 81.0133 261.467 80.6933 262.32 80.48V57.84L259.68 57.52V55.96C260.107 55.7733 260.627 55.6 261.24 55.44C261.88 55.28 262.533 55.1467 263.2 55.04C263.867 54.9067 264.507 54.8 265.12 54.72C265.76 54.64 266.293 54.5733 266.72 54.52H268.08V59H268.12C268.573 57.72 269.28 56.6533 270.24 55.8C271.227 54.9467 272.587 54.52 274.32 54.52C275.493 54.52 276.547 54.72 277.48 55.12C278.44 55.4933 279.24 56.0933 279.88 56.92C280.547 57.72 281.053 58.76 281.4 60.04C281.773 61.2933 281.96 62.8 281.96 64.56C281.96 66.24 281.72 67.76 281.24 69.12C280.787 70.48 280.12 71.6267 279.24 72.56C278.387 73.4933 277.333 74.2133 276.08 74.72C274.853 75.2267 273.453 75.48 271.88 75.48C270.973 75.48 270.253 75.4133 269.72 75.28C269.213 75.1733 268.667 74.9733 268.08 74.68V80.48C268.507 80.5333 268.933 80.6267 269.36 80.76C269.787 80.92 270.24 81.1467 270.72 81.44V83ZM272 57.72C271.093 57.72 270.28 58.04 269.56 58.68C268.867 59.32 268.373 60.3067 268.08 61.64V72.28C268.507 72.6 268.96 72.84 269.44 73C269.92 73.1333 270.547 73.2 271.32 73.2C272.84 73.2 273.96 72.4667 274.68 71C275.4 69.5333 275.76 67.3867 275.76 64.56C275.76 62.3733 275.48 60.6933 274.92 59.52C274.387 58.32 273.413 57.72 272 57.72ZM306.655 71.64C306.442 72.0933 306.095 72.56 305.615 73.04C305.162 73.4933 304.588 73.9067 303.895 74.28C303.228 74.6267 302.442 74.9067 301.535 75.12C300.655 75.36 299.695 75.48 298.655 75.48C297.002 75.48 295.535 75.24 294.255 74.76C292.975 74.2533 291.908 73.5467 291.055 72.64C290.202 71.7067 289.548 70.6 289.095 69.32C288.668 68.04 288.455 66.6 288.455 65C288.455 61.5867 289.348 58.9867 291.135 57.2C292.922 55.4133 295.402 54.52 298.575 54.52C299.935 54.52 301.202 54.7067 302.375 55.08C303.575 55.4533 304.562 56.0667 305.335 56.92C306.135 57.7733 306.682 58.8933 306.975 60.28C307.295 61.6667 307.282 63.36 306.935 65.36H294.655C294.682 67.4667 295.215 69.1467 296.255 70.4C297.322 71.6533 298.882 72.28 300.935 72.28C301.815 72.28 302.722 72.1467 303.655 71.88C304.615 71.6133 305.362 71.2667 305.895 70.84L306.655 71.64ZM298.415 56.8C297.882 56.8 297.402 56.8933 296.975 57.08C296.575 57.2667 296.215 57.6133 295.895 58.12C295.602 58.6 295.362 59.2667 295.175 60.12C294.988 60.9467 294.855 62 294.775 63.28H301.215C301.402 61.2 301.282 59.6 300.855 58.48C300.428 57.36 299.615 56.8 298.415 56.8ZM324.299 59.6C323.979 59.76 323.606 60.0267 323.179 60.4C322.753 60.7733 322.366 61.3867 322.019 62.24V72.48C322.553 72.5333 323.086 72.64 323.619 72.8C324.153 72.9333 324.686 73.1467 325.219 73.44V75H313.619V73.44C314.099 73.1733 314.553 72.9733 314.979 72.84C315.406 72.7067 315.833 72.5867 316.259 72.48V57.84L313.619 57.52V55.96C314.046 55.7733 314.566 55.6 315.179 55.44C315.819 55.28 316.473 55.1467 317.139 55.04C317.806 54.9067 318.446 54.8 319.059 54.72C319.699 54.64 320.233 54.5733 320.659 54.52H322.019V59.84H322.179C322.393 59.2533 322.699 58.64 323.099 58C323.526 57.36 324.019 56.7733 324.579 56.24C325.139 55.7067 325.753 55.28 326.419 54.96C327.086 54.64 327.779 54.4933 328.499 54.52C328.793 54.8933 329.046 55.4267 329.259 56.12C329.473 56.7867 329.646 57.4267 329.779 58.04V59.6H324.299Z" fill="black"/>
</svg>
